<?xml version="1.0" encoding="utf-8"?>
<!-- Generator: Adobe Illustrator 15.0.0, SVG Export Plug-In . SVG Version: 6.00 Build 0)  -->
<!DOCTYPE svg PUBLIC "-//W3C//DTD SVG 1.1//EN" "http://www.w3.org/Graphics/SVG/1.1/DTD/svg11.dtd">
<svg version="1.1" id="Layer_1" xmlns="http://www.w3.org/2000/svg" xmlns:xlink="http://www.w3.org/1999/xlink" x="0px" y="0px"
	 width="329px" height="180px" viewBox="0 0 329 180" enable-background="new 0 0 329 180" xml:space="preserve">
<g>
	<path fill="#FFFFFF" d="M208.404,157.15c1.654,0,2.42-1.131,2.42-2.746v-3.994c0-1.635-0.646-2.725-2.42-2.725
		c-1.776,0-2.422,1.09-2.422,2.725v3.994C205.982,156.02,206.748,157.15,208.404,157.15z"/>
	<path fill="#FFFFFF" d="M183.967,147.867h-2.139v3.35h2.26c1.395,0,2.141-0.586,2.141-1.637
		C186.229,148.734,185.804,147.867,183.967,147.867z"/>
	<path fill="#FFFFFF" d="M223.053,149.58c0-0.846-0.424-1.713-2.261-1.713h-2.14v3.35h2.262
		C222.306,151.217,223.053,150.633,223.053,149.58z"/>
	<path fill="#FFFFFF" d="M194.035,147.867v3.35h2.261c1.394,0,2.14-0.586,2.14-1.637c0-0.846-0.425-1.713-2.26-1.713H194.035z"/>
	<circle fill="#FFFFFF" cx="91.854" cy="117.722" r="1.552"/>
	<circle fill="#FFFFFF" cx="92.823" cy="72.446" r="0.871"/>
	<circle fill="#FFFFFF" cx="220.986" cy="131.977" r="2.848"/>
	<circle fill="#FFFFFF" cx="161.566" cy="67.431" r="2.847"/>
	<circle fill="#FFFFFF" cx="112.379" cy="31.788" r="1.578"/>
	<circle fill="#FFFFFF" cx="117.046" cy="131.976" r="1.579"/>
	<circle fill="#FFFFFF" cx="5.425" cy="130.398" r="1.578"/>
	<circle fill="#FFFFFF" cx="115.535" cy="2.578" r="1.578"/>
	<circle fill="#FFFFFF" cx="218.14" cy="109.35" r="1.578"/>
	<circle fill="#FFFFFF" cx="159.988" cy="82.732" r="1.578"/>
	<circle fill="#FFFFFF" cx="303.479" cy="56.944" r="5.867"/>
	<circle fill="#FFFFFF" cx="291.367" cy="55.472" r="1.963"/>
	<path fill="#FFFFFF" d="M326.742,105.988c-1.127-0.566-2.391-0.566-3.469-0.107c-1.34-0.475-2.293-1.803-2.391-3.367
		c0.242-0.324,0.387-0.729,0.387-1.164c0-1.084-0.879-1.963-1.964-1.963c-1.082,0-1.964,0.879-1.964,1.963
		c0,1.082,0.881,1.963,1.964,1.963c0.106,0,0.209-0.012,0.312-0.027c1.209,0.67,1.977,2.117,1.828,3.717
		c-0.018,0.193-0.051,0.381-0.092,0.564c-0.049,0.08-0.098,0.16-0.141,0.246c-0.152,0.301-0.26,0.615-0.334,0.934
		c-0.039,0.17-0.066,0.344-0.084,0.516c-0.162,1.643,0.675,3.293,2.24,4.082c2.027,1.021,4.505,0.207,5.529-1.822
		C329.587,109.49,328.773,107.014,326.742,105.988z"/>
	<circle fill="#FFFFFF" cx="299.3" cy="158.522" r="1.962"/>
	<circle fill="#FFFFFF" cx="10.465" cy="81.564" r="1.962"/>
	<circle fill="#FFFFFF" cx="59.524" cy="9.128" r="4.2"/>
	<path fill="#FFFFFF" d="M307.99,97.613c-2.414-0.637-4.266-1.285-5.685-1.926c-4.975-0.105-8.976-4.168-8.976-9.168
		c0-4.007,2.57-7.411,6.15-8.661V70.63c0-5.891-5.238-10.309-11.291-10.309c-6.385,0-11.291,4.418-11.291,10.309v25.036h-4.279
		c-0.432,0.633-0.881,1.723-1.288,3.535c0.044,1.141-0.503,2.219-1.511,2.744c-1.438,0.752-3.271,0.088-4.092-1.482
		c-0.298-0.564-0.418-1.17-0.39-1.748c-0.13-0.527-0.657-1.898-2.707-3.049h-6.188c7.795-18.009,14.377-32.821,21.738-49.686
		c1.434,0.779,3.262,0.659,4.596-0.448c0.97-0.807,1.475-1.966,1.481-3.136c0.97-1.04,2.567-1.383,4.04-0.85
		c0.204,0.351,0.516,0.644,0.913,0.818c0.995,0.433,2.149-0.023,2.584-1.017c0.433-0.994-0.022-2.15-1.017-2.583
		c-0.992-0.432-2.149,0.022-2.582,1.016c-0.041,0.097-0.073,0.195-0.1,0.294c-1.096,0.842-2.729,0.969-4.137,0.195
		c-0.171-0.093-0.329-0.198-0.482-0.31c-0.052-0.077-0.106-0.153-0.166-0.227c-0.219-0.261-0.464-0.483-0.726-0.677
		c-0.14-0.104-0.286-0.198-0.437-0.283c-0.226-0.125-0.461-0.225-0.701-0.306c0.406-0.934,0.814-1.874,1.227-2.825
		c0.117-0.271,0.232-0.54,0.352-0.812c0.029-0.068,0.059-0.135,0.088-0.202c0.652-1.473,0.652-2.618,0.652-3.6
		c0-0.529-0.049-1.052-0.144-1.564c0.37-0.626,0.764-0.953,0.942-1.082c0.366-0.225,0.695-0.52,0.969-0.887
		c1.148-1.544,0.826-3.726-0.719-4.873c-0.865-0.643-1.933-0.823-2.902-0.587c-1.319,0.258-2.355,0.368-3.17,0.379
		c-0.776-0.523-1.61-0.959-2.475-1.292c-0.136-0.051-0.271-0.101-0.404-0.146c-1.104-0.376-2.25-0.585-3.39-0.585
		c-4.255,0-8.509,2.455-10.145,6.382l-12.093,27.903c-5.301,1.088-10.769-1.802-12.771-7.04c-0.262-0.682-0.813-1.898-1.31-3.131
		c-0.12-1.188-0.459-2.313-0.971-3.334c0-0.001,0-0.002,0-0.002l0,0c-1.584-3.165-4.854-5.339-8.638-5.339
		c-5.216,0-9.464,4.137-9.647,9.307c-0.008-0.006-0.018-0.013-0.023-0.019c-0.02,0.252-0.046,0.505-0.086,0.759
		c-0.628,3.987-3.645,7.003-7.361,7.825c-9.562-18.436-28.822-31.033-51.023-31.033c-10.045,0-19.485,2.581-27.701,7.111
		c-1.079,0.42-2.25,0.654-3.479,0.654c-5.275,0-9.553-4.248-9.553-9.489c0-0.602,0.062-1.19,0.171-1.762
		c0.297-0.805,0.46-1.676,0.46-2.584c0-4.128-3.347-7.474-7.474-7.474s-7.473,3.346-7.473,7.474c0,4.014,3.164,7.288,7.134,7.466
		c-0.006,0.014-0.015,0.026-0.021,0.04c0.244-0.02,0.491-0.032,0.74-0.032c5.102,0,9.236,4.136,9.236,9.237
		c0,1.877-0.561,3.622-1.522,5.079c-10.191,9.65-16.848,22.984-17.836,37.872c-1.302,1.854-3.786,2.531-5.855,1.486
		c-0.269-0.135-0.517-0.295-0.746-0.474c-0.282-0.298-0.615-0.556-1.001-0.752c-1.594-0.804-3.496-0.321-4.534,1.054
		c-0.016-0.019-0.031-0.039-0.046-0.059c-0.051,0.126-0.104,0.251-0.167,0.375c-0.018,0.031-0.035,0.062-0.054,0.094
		c-1.286,2.416-4.547,3.252-7.462,1.952v-13.1c0-5.892-5.237-10.309-11.292-10.309c-1.42,0-2.766,0.22-4.003,0.625
		c-3.99-1.293-7.266-4.212-9.052-7.994c2.567-5.858,5.198-11.885,7.983-18.321c0.654-1.473,0.654-2.618,0.654-3.6
		c0-1.897-0.631-3.703-1.674-5.272c0.814-0.062,1.457-0.741,1.457-1.573c0-0.871-0.707-1.578-1.578-1.578
		c-0.735,0-1.351,0.503-1.527,1.184c-2.152-2.073-5.082-3.397-7.969-3.397c-4.254,0-8.509,2.455-10.146,6.382l-5.584,12.884
		c-2.083,0.807-3.548,0.507-4.047,0.355c-0.599-0.232-1.25-0.361-1.932-0.355c-2.848,0.019-5.139,2.302-5.121,5.097
		c0.011,1.572,0.752,2.972,1.904,3.892c1.616,1.427,2.721,2.611,3.461,3.597c2.822,0.579,4.945,3.076,4.945,6.069
		c0,3.421-2.773,6.194-6.195,6.194c-1.238,0-2.391-0.364-3.357-0.991l-11.34,26.166c-0.783,0.142-1.326,0.019-1.549-0.052
		c-0.356-0.145-0.745-0.225-1.153-0.225c-1.704,0-3.086,1.381-3.086,3.083c0,0.955,0.434,1.809,1.114,2.373
		c0.719,0.656,1.266,1.227,1.683,1.727l-1.16,2.674c-0.981,2.129-1.637,5.074-1.637,5.729c0,2.867,1.127,5.576,3.073,7.605
		c-0.568,2.908-2.965,5.227-6.048,5.541c-0.435,0.045-0.864,0.043-1.284,0.006c-0.603-0.154-1.242-0.207-1.897-0.141
		c-2.978,0.305-5.144,2.963-4.839,5.939c0.304,2.979,2.963,5.145,5.94,4.84c2.896-0.295,5.022-2.818,4.859-5.695
		c0.009,0.004,0.02,0.01,0.031,0.014c-0.032-0.174-0.059-0.352-0.078-0.529c-0.376-3.68,2.301-6.967,5.982-7.344
		c0.397-0.041,0.79-0.043,1.177-0.016c0.804,0.332,1.664,0.574,2.572,0.727c0.127,0.066,0.254,0.135,0.375,0.209
		c0.003-0.051,0.004-0.098,0.006-0.148c0.565,0.076,1.149,0.119,1.748,0.119h36v13.418c0,5.893,4.909,10.309,11.291,10.309
		c6.381,0,11.292-4.416,11.292-10.309v-13.418h2.127c2.647,0,5.025-0.832,6.887-2.229c0.292,1.145,1.321,1.994,2.556,2.004
		c1.472,0.014,2.675-1.17,2.688-2.641c0.012-1.383-1.028-2.525-2.375-2.674c0.773-1.424,1.207-3.045,1.207-4.77
		c0-0.914-0.138-1.807-0.395-2.662c1.58-0.434,3.229-0.662,4.926-0.662c1.894,0,3.728,0.287,5.471,0.822
		c5.102,14.221,15.649,25.848,29.131,32.361c-0.834,4.893-4.156,9.217-9.117,11.068c-0.848,0.316-1.707,0.543-2.568,0.689
		c-1.308,0.004-2.636,0.232-3.933,0.719c-0.269,0.1-0.529,0.211-0.784,0.33c-2.616-0.539-4.573-2.854-4.549-5.607
		c0.002-0.371,0.045-0.73,0.117-1.082c0.175-0.473,0.277-0.979,0.282-1.514c0.021-2.469-1.962-4.486-4.431-4.508
		c-2.469-0.021-4.488,1.963-4.509,4.432c-0.021,2.4,1.856,4.371,4.232,4.496c-0.006,0.01-0.011,0.021-0.017,0.031
		c0.146-0.012,0.293-0.018,0.443-0.018c3.05,0.027,5.503,2.521,5.477,5.572c0,0.061-0.006,0.119-0.009,0.178
		c-3.254,3.027-4.548,7.828-2.897,12.25c2.187,5.855,8.706,8.832,14.562,6.646c5.695-2.125,8.665-8.35,6.812-14.076
		c0.022,0.002,0.047,0.008,0.069,0.01c-0.158-0.336-0.306-0.678-0.437-1.031c-2.356-6.309,0.137-13.24,5.609-16.705
		c6.395,2.457,13.34,3.809,20.602,3.809c9.076,0,17.658-2.105,25.291-5.855c3.828-0.648,5.771,0.73,6.287,1.182
		c0.047,0.049,0.097,0.092,0.145,0.139c0.25,0.234,0.527,0.447,0.827,0.635c0.823,5.225-5.792,5.736-11.339,6.668
		c-11.61,1.951-20.06-3.436-28.178,5.715c-3.498,3.941-8.625,18.232-4.623,23.301c6.271,7.938,16.24,0.463,23.391-1.975
		c11.736-4.002,20.423-4.439,32.514-0.908c9.691,2.828,28.248,13.748,37.545,4.604c7.075-6.959,0.155-11.531-1.206-19.318
		c-2.032-11.637,2.933-13.807-10.825-14.822c-12.088-0.893-23.83,0.352-29.613-8.746c-0.094-0.361-0.227-0.713-0.398-1.047
		c-0.762-1.686-1.255-3.057-1.551-4.172c10.658-9.525,17.74-22.969,18.982-38.068c6.022,1.119,11.457,4.98,14.338,10.914
		c0.466,0.961,0.847,1.943,1.147,2.934l-0.228,0.523c-0.98,2.127-1.635,5.07-1.635,5.727c0,1.705,0.399,3.354,1.131,4.84
		c-0.842,3.037-3.678,5.205-6.94,5.057c-0.435-0.021-0.86-0.086-1.271-0.184c-0.574-0.24-1.199-0.389-1.854-0.418
		c-2.989-0.137-5.522,2.176-5.66,5.164c-0.138,2.99,2.175,5.523,5.164,5.662c2.908,0.131,5.384-2.053,5.644-4.922
		c0.012,0.006,0.02,0.014,0.029,0.02c-0.007-0.178-0.009-0.357,0.002-0.537c0.168-3.693,3.299-6.553,6.994-6.385
		c0.217,0.012,0.426,0.031,0.633,0.062c1.993,1.705,4.655,2.768,7.748,2.768h36v13.416c0,5.893,4.907,10.311,11.291,10.311
		c0.803,0,1.579-0.068,2.325-0.203c2.837,0.881,4.618,3.76,4.042,6.723c-0.074,0.375-0.186,0.734-0.322,1.076
		c-0.268,0.447-0.469,0.943-0.574,1.486c-0.486,2.504,1.147,4.928,3.65,5.414c2.506,0.486,4.926-1.148,5.415-3.65
		c0.476-2.434-1.06-4.789-3.448-5.365c0.006-0.008,0.016-0.016,0.022-0.023c-0.151-0.02-0.301-0.039-0.453-0.07
		c-3.094-0.6-5.114-3.598-4.511-6.691c0.021-0.105,0.048-0.207,0.074-0.312c3.084-1.799,5.07-4.945,5.07-8.688v-9.738
		c2.521-7.227,6.588-8.48,7.727-8.689c0.861-0.078,1.723-0.322,2.533-0.748c3.349-1.75,4.643-5.883,2.894-9.227
		C311.65,99.254,309.914,98.021,307.99,97.613z M58.647,66.837v25.036H38.193c6.22-14.369,11.666-26.7,17.352-39.664
		c2.485,2.448,4.163,5.722,4.583,9.388C59.184,63.115,58.647,64.896,58.647,66.837z M90.654,94.467
		c-1.915-1.596-4.451-2.594-7.298-2.594h-0.571c-0.435,0.088-0.884,0.096-1.335,0h-0.222v-0.055
		c-0.34-0.092-0.678-0.244-1.013-0.461c-2.809-1.826-1.46-6.583,1.025-7.861c1.545-2.203,4.84-2.85,7.711-1.4
		c0.078,0.04,0.152,0.083,0.227,0.124c0.289,0.313,0.634,0.585,1.038,0.789c1.743,0.879,3.853,0.22,4.8-1.466
		c0.005,0.008,0.01,0.016,0.016,0.021c0.045-0.109,0.093-0.22,0.147-0.326c1.078-2.138,3.628-3.035,5.794-2.093
		c-0.006,0.326-0.012,0.649-0.012,0.976c0,1.461,0.055,2.91,0.162,4.344C98.755,89,95.069,92.557,90.654,94.467z M121.045,82.717
		c-0.864,0-1.563-0.7-1.563-1.562c0-0.863,0.699-1.563,1.563-1.563c0.862,0,1.562,0.7,1.562,1.563
		C122.607,82.017,121.907,82.717,121.045,82.717z M145.266,38.955c1.744,0,3.157,1.414,3.157,3.158c0,1.745-1.414,3.158-3.157,3.158
		c-1.744,0-3.158-1.414-3.158-3.158S143.521,38.955,145.266,38.955z M152.872,120.525c-2.009,0-3.638-1.627-3.638-3.637
		c0-2.008,1.629-3.637,3.638-3.637s3.637,1.629,3.637,3.637C156.509,118.898,154.881,120.525,152.872,120.525z M180.496,122.311
		c-0.864,0-1.562-0.701-1.562-1.562s0.698-1.562,1.562-1.562c0.863,0,1.562,0.701,1.562,1.562
		C182.058,121.611,181.359,122.311,180.496,122.311z M185.527,99.609c-0.61,2.729-3.356,4.438-6.137,3.814
		c-0.664-0.148-1.27-0.42-1.8-0.779c-0.53-0.307-2.312-1.113-5.255-0.311c-1.682,1.131-3.51,2.061-5.447,2.758
		c-0.365,0.217-0.574,0.285-0.646,0.225c-0.965,0.316-1.954,0.578-2.967,0.777c-0.287,3.098,1.625,6.076,4.717,7.018
		c0.172,0.051,0.346,0.094,0.52,0.133c-0.009,0.008-0.018,0.018-0.025,0.023c2.717,0.961,4.219,3.902,3.371,6.686
		c-0.875,2.861-3.9,4.477-6.765,3.604s-4.476-3.902-3.603-6.766c0.191-0.629,0.488-1.197,0.865-1.693
		c0.196-0.371,0.363-0.77,0.49-1.186c0.854-2.799-0.176-5.723-2.365-7.432c-0.684,0.057-1.373,0.086-2.07,0.086
		c-13.812,0-25.004-11.193-25.004-25.002c0-13.809,11.192-25.003,25.004-25.003c13.81,0,25,11.194,25,25.003
		c0,3.166-0.588,6.192-1.66,8.979c0.462,1.213,1.328,2.789,2.8,4.85C185.464,96.549,185.871,98.076,185.527,99.609z
		 M175.857,159.529h-5.35c-0.988,0-1.876-0.342-1.876-1.432v-11.361c0-0.705,0.667-1.432,1.554-1.432h5.469
		c0.767,0,1.412,0.604,1.412,1.311c0,0.729-0.646,1.252-1.412,1.252h-4.196v3.248h3.812c0.707,0,1.393,0.545,1.393,1.273
		c0,0.725-0.604,1.289-1.393,1.289h-3.812v3.289h4.399c0.744,0,1.41,0.564,1.41,1.252
		C177.268,158.945,176.622,159.529,175.857,159.529z M187.781,159.691c-0.506,0-0.93-0.221-1.191-0.625l-3.389-5.307h-1.373v4.621
		c0,0.705-0.665,1.33-1.434,1.33c-0.746,0-1.392-0.604-1.392-1.33v-11.623c0-0.787,0.705-1.453,1.532-1.453h3.513
		c3.793,0,5.004,2.16,5.004,4.275c0,1.998-1.069,3.311-2.806,3.875l2.765,4.158C189.677,158.621,188.689,159.691,187.781,159.691z
		 M215.829,146.758c0-0.787,0.704-1.453,1.532-1.453h3.513c3.793,0,5.004,2.16,5.004,4.275c0,1.998-1.069,3.311-2.806,3.875
		l2.764,4.158c0.668,1.008-0.323,2.076-1.229,2.076c-0.506,0-0.929-0.221-1.191-0.625l-3.391-5.305h-1.371v4.619
		c0,0.707-0.666,1.332-1.435,1.332c-0.746,0-1.392-0.605-1.392-1.332L215.829,146.758L215.829,146.758z M203.158,150.408
		c0-2.863,1.473-5.285,5.244-5.285c3.773,0,5.246,2.42,5.246,5.285v3.994c0,2.947-1.757,5.309-5.246,5.309s-5.244-2.361-5.244-5.309
		V150.408z M187.443,90.693c0-1.725,1.4-3.125,3.125-3.125c1.729,0,3.127,1.4,3.127,3.125c0,1.729-1.398,3.127-3.127,3.127
		C188.843,93.82,187.443,92.422,187.443,90.693z M201.26,149.58c0,1.998-1.068,3.311-2.805,3.875l2.764,4.158
		c0.667,1.008-0.322,2.076-1.23,2.076c-0.504,0-0.93-0.221-1.19-0.625l-3.39-5.305h-1.372v4.619c0,0.707-0.666,1.332-1.433,1.332
		c-0.746,0-1.393-0.605-1.393-1.332v-11.623c0-0.787,0.706-1.453,1.534-1.453h3.511C200.049,145.305,201.26,147.465,201.26,149.58z
		 M237.82,85.105c-0.252,0-0.504-0.01-0.756-0.024l-0.013,0.031c-7.743,2.203-16.041-0.317-21.21-6.304
		c-0.186-8.216-2.096-16.004-5.381-23.021c2.141-2.176,5.254-3.325,8.484-2.817c0.899,0.142,1.75,0.404,2.539,0.765
		c0-0.009-0.002-0.019-0.002-0.028c1.474,0.911,3.211,1.438,5.07,1.438c1.928,0,3.723-0.567,5.229-1.54
		c5.795-1.77,12.043,1.212,14.233,6.939c0.276,0.724,0.468,1.458,0.593,2.194c2.534,2.358,4.123,5.72,4.123,9.455
		C250.732,79.325,244.951,85.105,237.82,85.105z M270.541,107.727c-0.873,0-1.58-0.707-1.58-1.58c0-0.871,0.707-1.578,1.58-1.578
		c0.872,0,1.579,0.707,1.579,1.578C272.121,107.02,271.413,107.727,270.541,107.727z"/>
	<circle fill="#FFFFFF" cx="311.677" cy="86.6" r="1.578"/>
</g>
</svg>
