<?xml version="1.0" encoding="utf-8"?>
<!-- Generator: Adobe Illustrator 15.0.0, SVG Export Plug-In . SVG Version: 6.00 Build 0)  -->
<!DOCTYPE svg PUBLIC "-//W3C//DTD SVG 1.1//EN" "http://www.w3.org/Graphics/SVG/1.1/DTD/svg11.dtd">
<svg version="1.1" id="Layer_1" xmlns="http://www.w3.org/2000/svg" xmlns:xlink="http://www.w3.org/1999/xlink" x="0px" y="0px"
	 width="55px" height="55px" viewBox="0 0 55 55" enable-background="new 0 0 55 55" xml:space="preserve">
<g>
	<g>
		<path fill="#FFFFFF" d="M33.422,13.005c0.32,0,0.637,0.008,0.953,0.021c-3.4-4.089-9.083-6.771-15.523-6.771
			C8.441,6.255,0,13.261,0,21.905c0,5.038,2.872,9.517,7.327,12.38v8.953l3.932-7.01c1.807,0.66,3.764,1.092,5.815,1.252
			c-1.738-2.432-2.74-5.283-2.74-8.326C14.333,20.25,22.896,13.005,33.422,13.005z"/>
		<path fill="#FFFFFF" d="M33.422,14.782c-9.561,0-17.312,6.435-17.312,14.373c0,7.938,7.752,14.371,17.312,14.371
			c2.482,0,4.842-0.438,6.975-1.217l3.611,6.438v-8.223c4.09-2.629,6.729-6.744,6.729-11.369
			C50.736,21.216,42.984,14.782,33.422,14.782z M43,38.955l-0.855,0.551v2.109l-0.898-1.602l-1.49,0.545
			c-2.002,0.732-4.135,1.104-6.334,1.104c-8.519,0-15.45-5.611-15.45-12.508c0-6.898,6.931-12.51,15.45-12.51
			c8.52,0,15.451,5.611,15.451,12.51C48.873,32.984,46.732,36.557,43,38.955z"/>
	</g>
	<g>
		<g>
			<path fill="#FFFFFF" d="M30.75,27.026h-5.307c-0.39,0-0.708-0.316-0.708-0.707c0-0.39,0.317-0.707,0.708-0.707h5.307
				c0.391,0,0.707,0.317,0.707,0.707C31.457,26.709,31.141,27.026,30.75,27.026z"/>
		</g>
		<g>
			<path fill="#FFFFFF" d="M41.402,30.096H25.443c-0.39,0-0.708-0.318-0.708-0.709s0.317-0.707,0.708-0.707h15.959
				c0.391,0,0.709,0.316,0.709,0.707S41.793,30.096,41.402,30.096z"/>
		</g>
		<g>
			<path fill="#FFFFFF" d="M41.402,33.164h-5.307c-0.391,0-0.709-0.318-0.709-0.709s0.318-0.707,0.709-0.707h5.307
				c0.391,0,0.709,0.316,0.709,0.707S41.793,33.164,41.402,33.164z"/>
		</g>
	</g>
</g>
</svg>
