<?xml version="1.0" encoding="utf-8"?>
<!-- Generator: Adobe Illustrator 15.0.0, SVG Export Plug-In . SVG Version: 6.00 Build 0)  -->
<!DOCTYPE svg PUBLIC "-//W3C//DTD SVG 1.1//EN" "http://www.w3.org/Graphics/SVG/1.1/DTD/svg11.dtd">
<svg version="1.1" id="Layer_1" xmlns="http://www.w3.org/2000/svg" xmlns:xlink="http://www.w3.org/1999/xlink" x="0px" y="0px"
	 width="500px" height="351px" viewBox="0 0 500 351" enable-background="new 0 0 500 351" xml:space="preserve">
<g>
	<polygon fill="#CEF8FF" points="500,245.144 312.255,186.611 312.255,44.014 500,102.547 	"/>
</g>
<path fill="#92F1FF" d="M442.834,306.516l-60.495-18.529c-6.349-1.943-16.643-1.943-22.992,0l-116.392,35.448
	c-6.348,1.944-6.348,5.097,0,7.043l60.496,18.529c6.348,1.943,16.642,1.943,22.99,0l116.393-35.448
	C449.183,311.613,449.182,308.46,442.834,306.516z"/>
<path fill="#CEF8FF" d="M177.145,244.649v37.88l88.385-27.578V217.07L177.145,244.649z"/>
<path fill="#CEF8FF" d="M0,65.832v63.689l148.603-46.368v-63.69L0,65.832z"/>
<g>
	<polygon fill="#4FB6FE" points="56.666,280.127 318.149,198.605 318.149,0 56.666,81.523 	"/>
</g>
<g>
	<polygon fill="#92F1FF" points="74.301,292.838 335.786,211.315 335.786,12.71 74.301,94.234 	"/>
</g>
<path fill="#4FB6FE" d="M323.905,25.978L86.182,100.156c-2.118,0.66-3.835,2.914-3.835,5.03v15.893l245.392-76.571V28.616
	C327.739,26.499,326.022,25.317,323.905,25.978z"/>
<path fill="#FFFFFF" d="M82.347,121.08v156.174c0,2.117,1.717,3.298,3.835,2.637l237.723-74.178c2.117-0.662,3.834-2.911,3.834-5.03
	V44.509L82.347,121.08z"/>
<path fill="#CEF8FF" d="M176.677,138.999l-50.347,15.7c-2.476,0.773-4.482,3.408-4.482,5.884v16.435c0,2.474,2.006,3.854,4.482,3.08
	l50.347-15.7V138.999z"/>
<path fill="#FFFFFF" d="M99.497,105.92c0,1.935-1.568,3.992-3.503,4.596c-1.935,0.604-3.503-0.475-3.503-2.41
	s1.568-3.992,3.503-4.596C97.929,102.907,99.497,103.986,99.497,105.92z"/>
<path fill="#FFFFFF" d="M111.757,102.095c0,1.935-1.568,3.992-3.503,4.596c-1.934,0.604-3.503-0.476-3.503-2.41
	c0-1.936,1.569-3.993,3.503-4.596C110.189,99.081,111.757,100.16,111.757,102.095z"/>
<path fill="#FFFFFF" d="M124.018,98.269c0,1.935-1.567,3.992-3.502,4.596s-3.503-0.475-3.503-2.41c0-1.934,1.568-3.992,3.503-4.596
	C122.45,95.255,124.018,96.334,124.018,98.269z"/>
<path fill="#3074FE" d="M316.776,38.121c0,3.347-2.713,6.907-6.061,7.952c-3.347,1.044-6.061-0.822-6.061-4.169
	s2.714-6.908,6.061-7.952C314.063,32.907,316.776,34.773,316.776,38.121z"/>
<path fill="#3074FE" d="M248.634,59.384c0,2.475-2.006,5.107-4.481,5.88L139.694,97.859c-2.475,0.772-4.481-0.608-4.481-3.083l0,0
	c0-2.475,2.006-5.108,4.481-5.88l104.458-32.595C246.627,55.529,248.634,56.909,248.634,59.384L248.634,59.384z"/>
<g>
	<path fill="#FFFFFF" d="M299.681,40.341c0,0.771-0.624,1.589-1.395,1.829l-17.461,5.448c-0.77,0.241-1.394-0.188-1.394-0.958l0,0
		c0-0.77,0.624-1.589,1.394-1.829l17.461-5.448C299.057,39.142,299.681,39.571,299.681,40.341L299.681,40.341z"/>
	<path fill="#FFFFFF" d="M292.563,48.791c0,0.77-0.623,1.588-1.393,1.828l-10.346,3.228c-0.77,0.24-1.394-0.189-1.394-0.958l0,0
		c0-0.77,0.624-1.589,1.394-1.829l10.346-3.229C291.94,47.592,292.563,48.021,292.563,48.791L292.563,48.791z"/>
</g>
<g>
	<path fill="#3074FE" d="M259.233,60.302c0,0.551,0.446,0.858,0.996,0.686c0.549-0.172,0.996-0.758,0.996-1.309v-0.236l-1.992,0.622
		V60.302z"/>
	<path fill="#3074FE" d="M263.348,56.742c-0.089-0.012-0.29-0.107-0.29-0.307c0-0.538,0-2.095,0-2.095
		c0-1.297-0.873-2.114-2.064-2.077c-0.015-0.405-0.35-0.628-0.764-0.499c-0.413,0.128-0.748,0.561-0.764,0.976
		c-1.189,0.705-2.064,2.068-2.064,3.365c0,0,0,1.557,0,2.095c0,0.199-0.2,0.42-0.289,0.487c-0.266,0.204-0.451,0.527-0.451,0.838
		c0,0.424,0.344,0.661,0.769,0.528l2.8-0.874l2.801-0.873c0.424-0.133,0.768-0.583,0.768-1.008
		C263.798,56.988,263.613,56.779,263.348,56.742z"/>
</g>
<path fill="#13217D" d="M288.239,89.207c0,2.474-2.006,5.109-4.482,5.882L93.741,154.455c-2.475,0.773-4.482-0.605-4.482-3.08
	v-16.434c0-2.476,2.007-5.11,4.482-5.884l190.016-59.366c2.477-0.773,4.482,0.606,4.482,3.081V89.207z"/>
<path fill="#F43F7E" d="M368.12,100.228c0,2.475-2.006,5.109-4.482,5.882l-190.015,59.256c-2.476,0.772-4.482-0.606-4.482-3.08
	v-16.434c0-2.476,2.007-5.111,4.482-5.884l190.015-59.255c2.477-0.773,4.482,0.605,4.482,3.081V100.228z"/>
<path fill="#13217D" d="M288.239,161.593c0,2.475-2.008,5.111-4.482,5.883L93.741,226.73c-2.475,0.772-4.482-0.605-4.482-3.08
	v-16.435c0-2.476,2.007-5.11,4.482-5.884l190.016-59.253c2.475-0.774,4.482,0.605,4.482,3.081V161.593z"/>
<path fill="#4FB6FE" d="M320.828,187.398c0,2.475-2.007,5.109-4.481,5.883L126.33,252.707c-2.476,0.773-4.482-0.605-4.482-3.081
	v-16.433c0-2.476,2.006-5.111,4.482-5.884l190.017-59.426c2.475-0.773,4.481,0.606,4.481,3.082V187.398z"/>
<g>
	<path fill="#4FB6FE" d="M99.974,137.403l0.162-0.051c0.475,2.01,1.961,3.121,3.722,2.571c1.76-0.549,3.247-2.587,3.723-4.894
		l0.101-0.032c0.644-0.201,1.447-3.034,0.328-2.739c0.007-0.155,0.012-0.314,0.012-0.475c0-2.567-1.603-3.724-3.927-2.999
		c-0.344,0.107-0.679,0.259-0.997,0.448c-0.224,0.133-0.409,0.384-0.556,0.717c-0.147,0.016-0.298,0.046-0.453,0.095
		c-1.355,0.423-2.454,1.969-2.454,3.455c0,0.213,0.056,0.74,0.129,1.331l-0.081,0.025C98.509,135.222,99.324,137.605,99.974,137.403
		z"/>
	<path fill="#4FB6FE" d="M109.783,139.906c-1.742,0.133-2.885-0.076-2.885-0.076l-1.495,4.803l-1.148-2.164
		c0.762-0.496,0.762-1.521,0.762-1.521c0-0.829-2.264-0.122-2.264,0.707c0,0,0,1.025,0.762,1.046l-1.149,2.88l-1.495-3.871
		c0,0-1.143,0.922-2.885,1.876c-1.086,0.594-1.991,1.684-1.991,3.065v0.615c0,1.697,3.958,1.305,7.89,0.067
		c3.933-1.216,7.891-3.293,7.891-4.99v-0.615C111.775,140.348,110.87,139.823,109.783,139.906z"/>
</g>
<g>
	<path fill="#3074FE" d="M14.839,85.311l0.328-0.108c0.962,4.282,3.974,6.648,7.539,5.479c3.565-1.169,6.577-5.513,7.539-10.426
		l0.205-0.067c1.304-0.427,2.932-6.464,0.665-5.836c0.015-0.331,0.024-0.668,0.024-1.012c0-5.468-3.246-7.932-7.952-6.388
		c-0.698,0.229-1.375,0.553-2.021,0.955c-0.453,0.284-0.828,0.818-1.126,1.528c-0.298,0.034-0.604,0.1-0.918,0.202
		c-2.745,0.9-4.97,4.195-4.97,7.36c0,0.454,0.113,1.577,0.262,2.833l-0.163,0.053C11.873,80.665,13.523,85.743,14.839,85.311z"/>
	<path fill="#3074FE" d="M34.708,90.645c-3.528,0.283-5.844-0.162-5.844-0.162l-3.029,10.232l-2.326-4.608
		c1.544-1.056,1.544-3.241,1.544-3.241c0-1.765-4.587-0.26-4.587,1.505c0,0,0,2.184,1.545,2.228l-2.327,6.135l-3.029-8.245
		c0,0-2.316,1.963-5.844,3.995c-2.2,1.266-4.033,3.588-4.033,6.53v1.309c0,3.614,8.017,2.779,15.98,0.142
		c7.965-2.59,15.981-7.015,15.981-10.63v-1.309C38.74,91.585,36.907,90.466,34.708,90.645z"/>
</g>
<g>
	<path fill="#4FB6FE" d="M99.974,209.998l0.162-0.051c0.475,2.01,1.961,3.121,3.722,2.57c1.76-0.549,3.247-2.586,3.723-4.894
		l0.101-0.03c0.644-0.201,1.447-3.035,0.328-2.74c0.007-0.155,0.012-0.314,0.012-0.475c0-2.568-1.603-3.725-3.927-2.999
		c-0.344,0.106-0.679,0.26-0.997,0.448c-0.224,0.133-0.409,0.383-0.556,0.716c-0.147,0.017-0.298,0.048-0.453,0.097
		c-1.355,0.422-2.454,1.969-2.454,3.453c0,0.215,0.056,0.742,0.129,1.331l-0.081,0.026
		C98.509,207.816,99.324,210.201,99.974,209.998z"/>
	<path fill="#4FB6FE" d="M109.783,212.502c-1.742,0.133-2.885-0.076-2.885-0.076l-1.495,4.803l-1.148-2.164
		c0.762-0.496,0.762-1.52,0.762-1.52c0-0.829-2.264-0.123-2.264,0.705c0,0,0,1.026,0.762,1.046l-1.149,2.88l-1.495-3.87
		c0,0-1.143,0.922-2.885,1.876c-1.086,0.594-1.991,1.684-1.991,3.064v0.617c0,1.694,3.958,1.303,7.89,0.065
		c3.933-1.216,7.891-3.294,7.891-4.99v-0.614C111.775,212.943,110.87,212.417,109.783,212.502z"/>
</g>
<g>
	<path fill="#FFFFFF" d="M303.659,182.76l0.162-0.051c0.477,2.01,1.963,3.121,3.723,2.571c1.761-0.55,3.248-2.587,3.724-4.894
		l0.101-0.031c0.644-0.201,1.447-3.035,0.328-2.74c0.006-0.154,0.012-0.314,0.012-0.476c0-2.566-1.603-3.724-3.927-2.999
		c-0.345,0.108-0.679,0.261-0.995,0.449c-0.227,0.133-0.41,0.383-0.559,0.717c-0.146,0.015-0.299,0.047-0.453,0.096
		c-1.355,0.422-2.453,1.97-2.453,3.454c0,0.213,0.055,0.74,0.128,1.331l-0.081,0.025
		C302.196,180.579,303.011,182.963,303.659,182.76z"/>
	<path fill="#FFFFFF" d="M313.47,185.264c-1.742,0.133-2.887-0.076-2.887-0.076l-1.492,4.805l-1.15-2.164
		c0.763-0.497,0.763-1.521,0.763-1.521c0-0.83-2.266-0.123-2.266,0.705c0,0,0,1.027,0.763,1.047l-1.147,2.88l-1.496-3.87
		c0,0-1.144,0.921-2.886,1.875c-1.085,0.594-1.99,1.685-1.99,3.065v0.614c0,1.697,3.957,1.306,7.891,0.067
		c3.932-1.216,7.89-3.293,7.89-4.991v-0.613C315.461,185.705,314.556,185.18,313.47,185.264z"/>
</g>
<g>
	<path fill="#FFFFFF" d="M349.61,96.059l0.161-0.051c0.476,2.011,1.962,3.122,3.723,2.572s3.247-2.588,3.723-4.895l0.101-0.031
		c0.644-0.201,1.447-3.035,0.328-2.74c0.008-0.156,0.012-0.313,0.012-0.476c0-2.567-1.603-3.724-3.926-2.999
		c-0.345,0.108-0.68,0.26-0.997,0.449c-0.225,0.133-0.409,0.384-0.557,0.717c-0.147,0.016-0.298,0.047-0.454,0.095
		c-1.354,0.422-2.453,1.969-2.453,3.455c0,0.213,0.055,0.74,0.128,1.33l-0.08,0.025C348.146,93.877,348.96,96.262,349.61,96.059z"/>
	<path fill="#FFFFFF" d="M359.419,98.562c-1.741,0.133-2.885-0.076-2.885-0.076l-1.495,4.804l-1.147-2.164
		c0.761-0.496,0.761-1.522,0.761-1.522c0-0.828-2.265-0.122-2.265,0.707c0,0,0,1.026,0.764,1.045l-1.149,2.88l-1.496-3.87
		c0,0-1.143,0.921-2.886,1.875c-1.086,0.595-1.99,1.685-1.99,3.066v0.615c0,1.696,3.959,1.304,7.891,0.066
		c3.932-1.216,7.891-3.293,7.891-4.99v-0.614C361.411,99.004,360.505,98.479,359.419,98.562z"/>
</g>
<g>
	<path fill="#4FB6FE" d="M156.411,115.062c0,0.901-0.731,1.859-1.632,2.139l-32.631,10.185c-0.901,0.28-1.632-0.223-1.632-1.125l0,0
		c0-0.901,0.73-1.858,1.632-2.139l32.631-10.185C155.68,113.657,156.411,114.162,156.411,115.062L156.411,115.062z"/>
	<path fill="#4FB6FE" d="M198.069,102.144c0,0.901-0.731,1.859-1.632,2.139l-32.631,10.185c-0.901,0.281-1.632-0.223-1.632-1.125
		l0,0c0-0.901,0.731-1.859,1.632-2.139l32.631-10.186C197.338,100.738,198.069,101.243,198.069,102.144L198.069,102.144z"/>
	<path fill="#4FB6FE" d="M182.218,114.03c0,0.901-0.731,1.859-1.633,2.139l-58.438,18.209c-0.901,0.28-1.632-0.224-1.632-1.125l0,0
		c0-0.901,0.73-1.858,1.632-2.139l58.438-18.209C181.486,112.625,182.218,113.129,182.218,114.03L182.218,114.03z"/>
	<path fill="#4FB6FE" d="M161.655,127.382c0,0.901-0.731,1.859-1.632,2.139l-37.876,11.849c-0.901,0.28-1.632-0.224-1.632-1.125l0,0
		c0-0.901,0.73-1.859,1.632-2.139l37.876-11.85C160.924,125.977,161.655,126.481,161.655,127.382L161.655,127.382z"/>
</g>
<g>
	<path fill="#4FB6FE" d="M155.595,187.389c0,0.901-0.731,1.858-1.632,2.138l-31.815,9.91c-0.901,0.281-1.632-0.222-1.632-1.124l0,0
		c0-0.9,0.73-1.857,1.632-2.139l31.815-9.91C154.863,185.982,155.595,186.486,155.595,187.389L155.595,187.389z"/>
	<path fill="#4FB6FE" d="M171.437,189.29c0,0.901-0.731,1.859-1.632,2.138l-47.658,15.002c-0.901,0.281-1.632-0.225-1.632-1.125l0,0
		c0-0.9,0.73-1.858,1.632-2.139l47.658-15.002C170.705,187.885,171.437,188.389,171.437,189.29L171.437,189.29z"/>
	<path fill="#4FB6FE" d="M145.187,204.605c0,0.901-0.731,1.859-1.632,2.139l-21.408,6.677c-0.901,0.28-1.632-0.224-1.632-1.125l0,0
		c0-0.9,0.73-1.858,1.632-2.139l21.408-6.677C144.456,203.201,145.187,203.704,145.187,204.605L145.187,204.605z"/>
</g>
<g>
	<path fill="#FFFFFF" d="M88.783,50.809c0,1.123-0.911,2.315-2.033,2.664L47.117,65.819c-1.122,0.349-2.032-0.278-2.032-1.401l0,0
		c0-1.122,0.91-2.315,2.032-2.664L86.75,49.407C87.872,49.059,88.783,49.686,88.783,50.809L88.783,50.809z"/>
	<path fill="#FFFFFF" d="M108.518,53.178c0,1.123-0.911,2.315-2.033,2.664L47.117,74.528c-1.122,0.349-2.032-0.278-2.032-1.401l0,0
		c0-1.123,0.91-2.315,2.032-2.664l59.368-18.688C107.607,51.427,108.518,52.054,108.518,53.178L108.518,53.178z"/>
</g>
<g>
	<path fill="#FFFFFF" d="M168.58,219.993c0,0.902-0.731,1.859-1.632,2.139l-34.336,10.708c-0.901,0.281-1.632-0.223-1.632-1.124l0,0
		c0-0.901,0.73-1.858,1.632-2.14l34.336-10.707C167.849,218.588,168.58,219.093,168.58,219.993L168.58,219.993z"/>
	<path fill="#FFFFFF" d="M168.58,226.985c0,0.901-0.731,1.859-1.632,2.14l-34.336,10.707c-0.901,0.281-1.632-0.223-1.632-1.125l0,0
		c0-0.902,0.73-1.859,1.632-2.139l34.336-10.708C167.849,225.58,168.58,226.084,168.58,226.985L168.58,226.985z"/>
	<path fill="#FFFFFF" d="M193.947,226.117c0,0.902-0.731,1.859-1.632,2.139l-59.703,18.568c-0.901,0.279-1.632-0.225-1.632-1.127
		l0,0c0-0.9,0.73-1.857,1.632-2.137l59.703-18.568C193.216,224.712,193.947,225.217,193.947,226.117L193.947,226.117z"/>
</g>
<g>
	<path fill="#FFFFFF" d="M416.739,157.246c0,0.902,0.732,1.859,1.633,2.138l34.336,10.709c0.901,0.28,1.632-0.224,1.632-1.125l0,0
		c0-0.902-0.73-1.859-1.632-2.14l-34.336-10.708C417.472,155.84,416.739,156.346,416.739,157.246L416.739,157.246z"/>
	<path fill="#FFFFFF" d="M416.739,164.238c0,0.902,0.732,1.86,1.633,2.14l34.336,10.706c0.901,0.281,1.632-0.223,1.632-1.124l0,0
		c0-0.902-0.73-1.859-1.632-2.14l-34.336-10.708C417.472,162.833,416.739,163.337,416.739,164.238L416.739,164.238z"/>
	<path fill="#FFFFFF" d="M391.373,163.37c0,0.902,0.731,1.859,1.632,2.138l59.703,18.568c0.901,0.281,1.632-0.224,1.632-1.125l0,0
		c0-0.9-0.73-1.859-1.632-2.139l-59.703-18.568C392.104,161.965,391.373,162.469,391.373,163.37L391.373,163.37z"/>
</g>
<g>
	<path fill="#FFFFFF" d="M218.765,132.141c0,0.901-0.731,1.859-1.632,2.139l-38.129,11.866c-0.901,0.281-1.632-0.223-1.632-1.125
		l0,0c0-0.901,0.73-1.858,1.632-2.139l38.129-11.867C218.034,130.735,218.765,131.239,218.765,132.141L218.765,132.141z"/>
	<path fill="#FFFFFF" d="M244.654,131.236c0,0.902-0.729,1.859-1.632,2.139l-64.018,19.763c-0.901,0.28-1.632-0.223-1.632-1.125l0,0
		c0-0.902,0.73-1.859,1.632-2.14l64.018-19.762C243.924,129.832,244.654,130.335,244.654,131.236L244.654,131.236z"/>
	<path fill="#FFFFFF" d="M202.405,151.141c0,0.902-0.732,1.859-1.632,2.139l-21.769,6.851c-0.901,0.28-1.632-0.225-1.632-1.125l0,0
		c0-0.902,0.73-1.859,1.632-2.14l21.769-6.85C201.673,149.735,202.405,150.24,202.405,151.141L202.405,151.141z"/>
</g>
<g>
	<path fill="#FFFFFF" d="M412.946,94.71c0,0.901,0.732,1.859,1.633,2.138l38.129,11.867c0.901,0.281,1.632-0.223,1.632-1.125l0,0
		c0-0.901-0.73-1.858-1.632-2.139l-38.129-11.867C413.679,93.305,412.946,93.809,412.946,94.71L412.946,94.71z"/>
	<path fill="#FFFFFF" d="M387.058,93.806c0,0.902,0.73,1.859,1.633,2.139l64.018,19.763c0.901,0.28,1.632-0.224,1.632-1.125l0,0
		c0-0.901-0.73-1.859-1.632-2.139L388.69,92.681C387.788,92.401,387.058,92.904,387.058,93.806L387.058,93.806z"/>
	<path fill="#FFFFFF" d="M429.308,113.71c0,0.902,0.732,1.859,1.632,2.139l21.769,6.851c0.901,0.28,1.632-0.225,1.632-1.125l0,0
		c0-0.902-0.73-1.859-1.632-2.14l-21.769-6.85C430.04,112.305,429.308,112.81,429.308,113.71L429.308,113.71z"/>
</g>
<path fill="#3074FE" d="M290.849,184.495c-1.095-0.758-2.869-0.211-3.963,1.221l-0.888,1.161l-0.888-0.615
	c-1.094-0.756-2.867-0.209-3.962,1.222c-1.094,1.431-1.094,3.205,0,3.962l4.854,3.35l4.846-6.338
	C291.942,187.025,291.942,185.252,290.849,184.495z"/>
<g>
	<path fill="#3074FE" d="M339.849,298.67c0.572,1.593-0.117,3.265-1.541,3.734l0,0c-1.426,0.469-3.043-0.441-3.616-2.034
		l-33.544-93.218c-0.572-1.594,0.115-3.266,1.541-3.734l0,0c1.424-0.47,3.042,0.441,3.615,2.034L339.849,298.67z"/>
	<path fill="#3074FE" d="M281.241,231.357c-1.424,0.47-3.043-0.441-3.615-2.035l0,0c-0.573-1.592,0.115-3.264,1.539-3.732
		l26.872-8.856c1.424-0.469,3.044,0.442,3.616,2.034l0,0c0.573,1.593-0.116,3.265-1.54,3.734L281.241,231.357z"/>
	<path fill="#3074FE" d="M288.919,252.695c-1.424,0.471-3.042-0.44-3.615-2.033l0,0c-0.574-1.594,0.116-3.265,1.541-3.734
		l26.871-8.855c1.424-0.469,3.043,0.441,3.615,2.033l0,0c0.574,1.594-0.115,3.266-1.539,3.735L288.919,252.695z"/>
	<path fill="#3074FE" d="M296.599,274.035c-1.425,0.469-3.043-0.441-3.617-2.035l0,0c-0.572-1.594,0.117-3.264,1.541-3.734
		l26.872-8.855c1.425-0.469,3.043,0.441,3.616,2.035l0,0c0.572,1.593-0.117,3.264-1.541,3.732L296.599,274.035z"/>
	<path fill="#3074FE" d="M304.277,295.373c-1.425,0.47-3.044-0.441-3.616-2.034l0,0c-0.574-1.593,0.115-3.265,1.54-3.733
		l26.872-8.856c1.424-0.469,3.042,0.442,3.615,2.034l0,0c0.573,1.593-0.115,3.266-1.539,3.734L304.277,295.373z"/>
	<path fill="#3074FE" d="M310.397,308.376c0.572,1.593-0.116,3.264-1.541,3.733l0,0c-1.424,0.469-3.043-0.442-3.616-2.035
		l-33.543-93.217c-0.573-1.594,0.116-3.265,1.54-3.734l0,0c1.424-0.469,3.043,0.441,3.617,2.035L310.397,308.376z"/>
</g>
<path fill="#F8A786" d="M338.7,109.358c-0.257-0.505-0.055-1.124,0.453-1.38c0.015-0.007,0.029-0.01,0.044-0.017
	c-0.269-0.495-0.086-1.115,0.408-1.387c0.498-0.273,1.12-0.092,1.394,0.404c0.008,0.013,0.043,0.078,0.094,0.174
	c0.079-0.077,0.165-0.144,0.268-0.195c0.508-0.247,1.124-0.037,1.372,0.472c0.021,0.039,0.218,0.447,0.473,1.019
	c0.519-0.165,1.084,0.103,1.274,0.621c0.025,0.07,0.626,1.713,0.819,2.84c0.134,0.774,0.089,2.255,0.103,2.31l1.723,7.078
	c0.354,1.455-0.536,2.921-1.992,3.277c-1.456,0.354-2.922-0.539-3.276-1.994l-1.723-7.078c-0.116-0.477-0.093-0.951,0.038-1.389
	c-0.374-0.129-0.988-0.394-0.521-0.527c0.625-0.179,0.363-1.212,0.357-1.241C339.546,111.04,338.708,109.377,338.7,109.358z"/>
<path fill="#13217D" d="M384.51,310.468c0,0,1.757,6.838-1.631,8.533c-3.856,1.929-9.692,0.235-16.386-2.937
	c-5.707-2.706-4.452-6.178-0.154-6.996c4.299-0.819,10.451,0.607,10.451,0.607L384.51,310.468z"/>
<path fill="#13217D" d="M326.069,283.762c0,0,1.016,8.03-2.037,9.472c-3.463,1.637-8.617-0.843-14-5.897
	c-4.428-4.157-3.412-7.73,0.377-7.994c3.789-0.266,9.021,2.314,9.021,2.314L326.069,283.762z"/>
<path fill="#4FB6FE" d="M325.353,237.043c-4.524,8.637-9.367,48.193-9.367,49.2c0,2.703,10.951,6.172,11.286,2.964
	c1.337-12.806,9.146-41.412,9.53-42.306c1.627-3.783,32.93-6.759,38.802-9.688c9.709-4.842,5.942-18.662,4.117-18.704
	C370.331,218.293,330.609,227.011,325.353,237.043z"/>
<path fill="#4FB6FE" d="M365.63,216.141c0.361,9.346,2.938,46.122,3.052,47.371c0.296,3.245,0.653,6.485,1.021,9.725
	c0.72,6.389,1.47,12.777,2.22,19.163c0.579,4.944,1.161,15.391,1.779,20.331c0.5,3.995,11.716,4.895,11.522,2.126
	c-0.349-4.954-0.522-18.414-0.662-23.377c-0.158-5.6-0.322-11.198-0.458-16.8c-0.069-2.908-0.14-5.814-0.183-8.727
	c-0.025-1.818-0.09-3.646,0.029-5.465c-0.004,0.092-0.01,0.184-0.014,0.273c0.041-1.133,4.059-32.018,3.027-44.041
	c-0.348-4.051-1.86-7.936-5.625-9.715c-3.138-1.484-6.936-1.22-9.83,0.687C368.64,209.578,365.477,212.732,365.63,216.141z"/>
<path fill="#3074FE" d="M346.948,117.218c0.702,2.958,2.018,7.369,3.018,10.237c1.138,3.272,7.324,17.366,9.336,19.996
	c1.834,2.396,11.49,8.208,16.91,14.105c10.699,11.636,11.072,44.489,12.137,57.667c0.963,11.959-40.641,15.094-37.586,3.846
	c0.504-1.857,4.297-23.05,4.795-51.979c0.049-2.75,5.062-5.124,7.318-6.754c-4.672-4.147-9.196-8.665-11.26-12.181
	c-3.318-5.648-8.325-19.626-10.002-26.354c-0.498-1.994-1.273-5.537-1.655-7.557C339.589,116.305,346.397,114.901,346.948,117.218z"
	/>
<g>
	<g>
		<path fill="#F8A786" d="M372.399,164.98c0.904-8.047-0.184-14.579-0.231-14.854c-0.337-1.982-2.22-3.316-4.201-2.977
			c-1.981,0.337-3.312,2.217-2.978,4.198c0.013,0.083,0.83,6.702,0.049,13.661C364.757,167.517,372.138,167.315,372.399,164.98z"/>
	</g>
	
		<ellipse transform="matrix(-0.9999 0.0134 -0.0134 -0.9999 729.3868 288.5929)" fill="#F8A786" cx="363.729" cy="146.733" rx="9.046" ry="12.744"/>
	<path fill="#13217D" d="M379.698,145.942c-0.418,8.282-6.577,11.361-6.923,15.082c-0.329,3.545-8.233-0.837-6.472-5.905
		c1.26-3.622-1.774-5.458-2.119-2.821c-0.298,2.286-2.761,1.943-2.761-1.053c0-3.891-2.932-6.216-6.462-7.764
		c-5.128-2.246,1.216-15.756,13.289-13.692C374.268,130.817,380.138,137.2,379.698,145.942z"/>
</g>
<path fill="#F8A786" d="M317.75,115.928c-0.086-0.561-0.612-0.944-1.172-0.856c-0.015,0.002-0.03,0.008-0.046,0.012
	c-0.07-0.559-0.581-0.958-1.141-0.89c-0.563,0.069-0.964,0.578-0.896,1.141c0.002,0.016,0.011,0.089,0.025,0.197
	c-0.107-0.017-0.217-0.021-0.33-0.002c-0.559,0.095-0.935,0.625-0.84,1.183c0.006,0.042,0.084,0.491,0.209,1.104
	c-0.518,0.167-0.822,0.715-0.672,1.247c0.019,0.071,0.488,1.757,0.987,2.785c0.344,0.707,1.243,1.885,1.267,1.937l2.724,6.754
	c0.562,1.389,2.139,2.062,3.531,1.501c1.388-0.561,2.058-2.141,1.499-3.531l-2.727-6.754c-0.184-0.456-0.479-0.827-0.842-1.106
	c0.228-0.323,0.574-0.897,0.115-0.732c-0.609,0.22-1-0.772-1.012-0.801C318.042,117.788,317.755,115.948,317.75,115.928z"/>
<path fill="#3074FE" d="M322.028,124.261c0.986,2.867,2.27,5.633,3.543,8.393c1.451,3.15,8.984,16.645,11.245,19.111
	c2.958,3.227,20.183,11.92,25.238,14.503c1.91,0.957,3.208,2.864,3.312,4.982c0.107,2.102-1.013,4.101-2.843,5.076
	c-1.739,0.928-3.604,3.242-5.339,2.199c-1.861-1.115-21.883-13.775-27.565-21.682c-3.853-5.359-10.198-18.807-12.526-25.323
	c-0.688-1.932-1.346-3.876-1.926-5.84C314.611,123.796,321.256,122.015,322.028,124.261z"/>
<path fill="#F43F7E" d="M268.214,74.435c0,2.722,2.207,4.482,4.93,3.931c2.722-0.551,4.93-3.205,4.93-5.927
	c0-2.723-2.208-4.481-4.93-3.931C270.421,69.06,268.214,71.713,268.214,74.435z"/>
<path fill="#F43F7E" d="M123.863,27.236c0,3.93,3.186,6.471,7.117,5.675c3.931-0.795,7.117-4.628,7.117-8.558
	c0-3.931-3.187-6.471-7.117-5.676C127.049,19.475,123.863,23.306,123.863,27.236z"/>
<path fill="#CEF8FF" d="M40.388,105.611v31.75c0,0-20.496-23.841-21.305-24.297C18.274,112.608,40.388,105.611,40.388,105.611z"/>
<g>
	<path fill="#FFFFFF" d="M363.219,241.445c-0.267,0-0.51-0.184-0.573-0.455c-0.074-0.317,0.122-0.635,0.439-0.71
		c0.606-0.142,1.315-0.278,2.066-0.421c4.408-0.844,11.068-2.117,14.091-7.885c0.151-0.289,0.509-0.402,0.796-0.25
		c0.289,0.151,0.4,0.508,0.249,0.797c-3.286,6.271-10.284,7.61-14.914,8.496c-0.739,0.142-1.436,0.274-2.019,0.412
		C363.309,241.439,363.264,241.445,363.219,241.445z"/>
</g>
<path fill="#3074FE" d="M276.06,193.166c0,0.902-0.732,1.859-1.632,2.139l-13.396,4.132c-0.902,0.28-1.633-0.224-1.633-1.124l0,0
	c0-0.9,0.73-1.859,1.633-2.139l13.396-4.132C275.327,191.762,276.06,192.266,276.06,193.166L276.06,193.166z"/>
<path fill="none" stroke="#4FB6FE" stroke-width="4" stroke-miterlimit="10" d="M483.981,132.122c0,1.339-1.086,2.038-2.425,1.562
	l-15.129-5.389c-1.34-0.477-2.425-1.949-2.425-3.288v-15.129c0-1.339,1.085-2.039,2.425-1.562l15.129,5.388
	c1.339,0.477,2.425,1.949,2.425,3.288V132.122z"/>
<path fill="none" stroke="#4FB6FE" stroke-width="4" stroke-miterlimit="10" d="M483.981,162.333c0,1.338-1.086,2.038-2.425,1.561
	l-15.129-5.389c-1.34-0.477-2.425-1.949-2.425-3.288v-15.129c0-1.339,1.085-2.039,2.425-1.561l15.129,5.388
	c1.339,0.477,2.425,1.949,2.425,3.288V162.333z"/>
<path fill="none" stroke="#4FB6FE" stroke-width="4" stroke-miterlimit="10" d="M483.981,192.543c0,1.338-1.086,2.037-2.425,1.562
	l-15.129-5.389c-1.34-0.478-2.425-1.949-2.425-3.288v-15.129c0-1.339,1.085-2.039,2.425-1.561l15.129,5.388
	c1.339,0.477,2.425,1.949,2.425,3.289V192.543z"/>
<path fill="none" stroke="#4FB6FE" stroke-width="4" stroke-miterlimit="10" d="M483.981,222.754c0,1.338-1.086,2.037-2.425,1.561
	l-15.129-5.389c-1.34-0.477-2.425-1.949-2.425-3.287v-15.131c0-1.338,1.085-2.037,2.425-1.561l15.129,5.389
	c1.339,0.477,2.425,1.949,2.425,3.288V222.754z"/>
</svg>
