<?xml version="1.0" encoding="utf-8"?>
<!-- Generator: Adobe Illustrator 15.0.0, SVG Export Plug-In . SVG Version: 6.00 Build 0)  -->
<!DOCTYPE svg PUBLIC "-//W3C//DTD SVG 1.1//EN" "http://www.w3.org/Graphics/SVG/1.1/DTD/svg11.dtd">
<svg version="1.1" id="Layer_1" xmlns="http://www.w3.org/2000/svg" xmlns:xlink="http://www.w3.org/1999/xlink" x="0px" y="0px"
	 width="359px" height="285px" viewBox="0 0 359 285" enable-background="new 0 0 359 285" xml:space="preserve">
<polygon fill="#CEF8FF" points="266.256,175.399 334.341,202.909 334.341,167.023 266.256,139.513 "/>
<g>
	<path fill="#92F1FF" d="M0.699,178.929c-0.124,0-0.249-0.032-0.362-0.101c-0.331-0.199-0.436-0.631-0.236-0.96
		c0.813-1.344,1.694-2.667,2.616-3.933c0.228-0.312,0.665-0.38,0.977-0.152c0.312,0.229,0.381,0.665,0.153,0.978
		c-0.899,1.232-1.757,2.521-2.549,3.831C1.166,178.81,0.935,178.929,0.699,178.929z M185.629,176.681
		c-1.415,0-2.873-0.015-4.334-0.043c-0.387-0.008-0.693-0.326-0.687-0.713c0.009-0.387,0.338-0.688,0.713-0.686
		c1.476,0.028,2.942,0.046,4.374,0.042h0.276c0.386,0,0.7,0.313,0.7,0.7c0,0.386-0.314,0.699-0.7,0.699h-0.275
		C185.674,176.681,185.651,176.681,185.629,176.681z M189.702,176.645c-0.381,0-0.692-0.306-0.699-0.688
		c-0.007-0.387,0.3-0.705,0.687-0.712c1.553-0.029,3.116-0.076,4.645-0.141c0.381-0.013,0.712,0.283,0.729,0.67
		c0.016,0.386-0.284,0.712-0.67,0.729c-1.539,0.064-3.113,0.112-4.678,0.142C189.711,176.645,189.706,176.645,189.702,176.645z
		 M177.579,176.536c-0.008,0-0.016,0-0.024-0.001c-1.543-0.055-3.115-0.125-4.673-0.209c-0.385-0.021-0.681-0.351-0.661-0.736
		c0.021-0.386,0.353-0.675,0.737-0.661c1.549,0.084,3.112,0.154,4.646,0.209c0.386,0.013,0.688,0.338,0.675,0.723
		C178.264,176.239,177.954,176.536,177.579,176.536z M198.089,176.312c-0.366,0-0.675-0.286-0.697-0.657
		c-0.023-0.386,0.27-0.718,0.655-0.741c1.553-0.096,3.111-0.211,4.632-0.344c0.39-0.033,0.725,0.25,0.758,0.635
		c0.033,0.386-0.251,0.725-0.636,0.759c-1.532,0.134-3.104,0.251-4.668,0.347C198.118,176.311,198.104,176.312,198.089,176.312z
		 M169.196,176.097c-0.016,0-0.033,0-0.049-0.002c-1.541-0.105-3.109-0.229-4.662-0.363c-0.385-0.032-0.67-0.372-0.637-0.757
		s0.375-0.669,0.757-0.637c1.544,0.134,3.105,0.256,4.638,0.362c0.385,0.025,0.676,0.36,0.649,0.745
		C169.868,175.815,169.561,176.097,169.196,176.097z M206.452,175.6c-0.353,0-0.655-0.265-0.694-0.623
		c-0.043-0.384,0.234-0.729,0.618-0.771c1.559-0.171,3.108-0.363,4.607-0.573c0.381-0.054,0.736,0.213,0.79,0.596
		c0.053,0.383-0.214,0.736-0.596,0.789c-1.514,0.212-3.077,0.407-4.648,0.579C206.504,175.599,206.478,175.6,206.452,175.6z
		 M160.832,175.388c-0.023,0-0.046-0.001-0.071-0.004c-1.547-0.155-3.111-0.324-4.647-0.503c-0.384-0.044-0.659-0.392-0.614-0.774
		c0.044-0.384,0.393-0.66,0.775-0.615c1.529,0.178,3.085,0.347,4.626,0.501c0.385,0.038,0.665,0.382,0.626,0.766
		C161.491,175.119,161.187,175.388,160.832,175.388z M214.768,174.463c-0.336,0-0.633-0.243-0.688-0.585
		c-0.064-0.382,0.194-0.742,0.575-0.805c1.539-0.255,3.074-0.535,4.564-0.834c0.379-0.074,0.747,0.17,0.823,0.549
		s-0.17,0.747-0.548,0.823c-1.506,0.302-3.058,0.585-4.611,0.842C214.844,174.46,214.806,174.463,214.768,174.463z M152.492,174.432
		c-0.03,0-0.061-0.002-0.091-0.007c-1.543-0.199-3.102-0.413-4.631-0.634c-0.382-0.055-0.647-0.41-0.592-0.793
		c0.055-0.382,0.413-0.647,0.792-0.591c1.522,0.22,3.073,0.432,4.61,0.631c0.383,0.05,0.654,0.4,0.604,0.783
		C153.139,174.174,152.838,174.432,152.492,174.432z M144.182,173.244c-0.037,0-0.073-0.003-0.109-0.009
		c-1.53-0.24-3.084-0.495-4.62-0.758c-0.381-0.066-0.636-0.428-0.571-0.809c0.065-0.381,0.428-0.637,0.808-0.57
		c1.528,0.262,3.076,0.516,4.6,0.755c0.381,0.06,0.643,0.418,0.583,0.799C144.818,172.997,144.52,173.244,144.182,173.244z
		 M223.002,172.839c-0.318,0-0.606-0.219-0.682-0.542c-0.087-0.377,0.148-0.752,0.524-0.839c1.525-0.354,3.038-0.733,4.496-1.132
		c0.37-0.101,0.757,0.119,0.859,0.492c0.102,0.372-0.118,0.757-0.492,0.858c-1.474,0.402-3.005,0.787-4.548,1.144
		C223.107,172.833,223.055,172.839,223.002,172.839z M5.58,172.112c-0.159,0-0.318-0.055-0.449-0.165
		c-0.296-0.248-0.334-0.689-0.086-0.984c1.006-1.199,2.079-2.37,3.187-3.482c0.273-0.274,0.716-0.275,0.99-0.002
		c0.273,0.272,0.274,0.716,0.001,0.989c-1.08,1.084-2.125,2.226-3.106,3.395C5.977,172.026,5.779,172.112,5.58,172.112z
		 M135.892,171.833c-0.042,0-0.084-0.003-0.127-0.011c-1.537-0.282-3.083-0.576-4.597-0.875c-0.379-0.074-0.625-0.443-0.551-0.822
		c0.075-0.378,0.441-0.626,0.822-0.551c1.507,0.298,3.048,0.592,4.578,0.872c0.38,0.069,0.632,0.435,0.562,0.814
		C136.517,171.597,136.223,171.833,135.892,171.833z M231.106,170.66c-0.299,0-0.575-0.192-0.668-0.492
		c-0.114-0.37,0.092-0.761,0.461-0.876c1.487-0.461,2.965-0.956,4.39-1.472c0.364-0.133,0.765,0.057,0.896,0.42
		c0.131,0.363-0.057,0.765-0.42,0.896c-1.446,0.522-2.943,1.024-4.452,1.492C231.245,170.649,231.175,170.66,231.106,170.66z
		 M127.641,170.216c-0.047,0-0.096-0.005-0.144-0.015c-1.523-0.318-3.048-0.646-4.573-0.986c-0.378-0.084-0.615-0.458-0.531-0.835
		s0.458-0.614,0.834-0.53c1.52,0.337,3.038,0.665,4.555,0.981c0.378,0.079,0.621,0.45,0.542,0.828
		C128.256,169.99,127.965,170.216,127.641,170.216z M119.435,168.4c-0.053,0-0.107-0.006-0.16-0.018
		c-1.515-0.355-3.031-0.719-4.547-1.094c-0.375-0.093-0.604-0.472-0.511-0.848c0.093-0.374,0.472-0.604,0.847-0.51
		c1.51,0.373,3.021,0.735,4.53,1.088c0.376,0.089,0.61,0.465,0.522,0.841C120.04,168.183,119.752,168.4,119.435,168.4z
		 M239.009,167.837c-0.276,0-0.537-0.164-0.648-0.435c-0.146-0.358,0.026-0.766,0.384-0.912c1.438-0.587,2.861-1.213,4.232-1.863
		c0.35-0.166,0.767-0.016,0.931,0.333c0.166,0.35,0.018,0.767-0.332,0.932c-1.394,0.66-2.842,1.298-4.303,1.894
		C239.186,167.821,239.097,167.837,239.009,167.837z M111.275,166.394c-0.058,0-0.117-0.007-0.175-0.022
		c-1.507-0.389-3.014-0.788-4.52-1.197c-0.373-0.102-0.593-0.485-0.492-0.858s0.486-0.594,0.858-0.491
		c1.5,0.407,3.001,0.805,4.503,1.192c0.375,0.097,0.599,0.479,0.502,0.853C111.871,166.185,111.586,166.394,111.275,166.394z
		 M11.447,166.123c-0.195,0-0.389-0.081-0.527-0.239c-0.254-0.29-0.225-0.732,0.065-0.986c1.178-1.032,2.415-2.026,3.677-2.956
		c0.312-0.23,0.75-0.164,0.979,0.147c0.229,0.311,0.163,0.748-0.148,0.978c-1.23,0.907-2.437,1.876-3.585,2.883
		C11.775,166.065,11.611,166.123,11.447,166.123z M246.607,164.282c-0.249,0-0.491-0.134-0.618-0.37
		c-0.182-0.341-0.053-0.765,0.288-0.946c1.374-0.734,2.72-1.51,4-2.305c0.328-0.205,0.759-0.104,0.963,0.226
		c0.204,0.327,0.104,0.759-0.226,0.963c-1.306,0.812-2.678,1.602-4.078,2.351C246.832,164.255,246.719,164.282,246.607,164.282z
		 M103.166,164.204c-0.063,0-0.127-0.009-0.191-0.027c-1.498-0.423-2.995-0.856-4.49-1.298c-0.371-0.11-0.582-0.5-0.473-0.87
		c0.11-0.37,0.499-0.582,0.87-0.473c1.489,0.441,2.981,0.873,4.473,1.295c0.372,0.105,0.588,0.491,0.483,0.863
		C103.751,164.001,103.471,164.204,103.166,164.204z M95.11,161.83c-0.068,0-0.137-0.01-0.206-0.03
		c-1.489-0.457-2.975-0.923-4.458-1.397c-0.368-0.118-0.571-0.512-0.453-0.88c0.118-0.369,0.512-0.57,0.879-0.453
		c1.479,0.474,2.959,0.938,4.443,1.394c0.369,0.113,0.577,0.504,0.463,0.874C95.686,161.636,95.409,161.83,95.11,161.83z
		 M18.151,161.089c-0.23,0-0.456-0.114-0.59-0.322c-0.208-0.326-0.113-0.759,0.212-0.967c1.315-0.843,2.686-1.642,4.072-2.378
		c0.341-0.181,0.765-0.051,0.946,0.29c0.181,0.342,0.051,0.765-0.29,0.946c-1.353,0.718-2.689,1.499-3.974,2.32
		C18.411,161.053,18.281,161.089,18.151,161.089z M253.76,159.9c-0.222,0-0.438-0.104-0.574-0.298
		c-0.222-0.316-0.145-0.753,0.172-0.975l0.324-0.229c1.167-0.832,2.35-1.652,3.515-2.439c0.321-0.216,0.756-0.131,0.972,0.188
		c0.216,0.32,0.132,0.755-0.188,0.972c-1.155,0.78-2.329,1.595-3.486,2.418l-0.333,0.235
		C254.038,159.859,253.897,159.9,253.76,159.9z M356.081,159.518c-0.189,0-0.378-0.077-0.516-0.228
		c-1.054-1.151-2.134-2.271-3.212-3.325c-0.276-0.271-0.281-0.714-0.011-0.989c0.271-0.277,0.713-0.28,0.989-0.012
		c1.097,1.074,2.195,2.212,3.266,3.381c0.261,0.286,0.24,0.728-0.044,0.988C356.419,159.457,356.25,159.518,356.081,159.518z
		 M87.112,159.279c-0.073,0-0.147-0.011-0.22-0.036c-1.479-0.489-2.954-0.988-4.425-1.495c-0.366-0.127-0.559-0.524-0.433-0.891
		c0.125-0.365,0.523-0.558,0.889-0.433c1.466,0.506,2.936,1.003,4.409,1.491c0.367,0.122,0.566,0.517,0.444,0.884
		C87.678,159.093,87.405,159.279,87.112,159.279z M25.522,157.098c-0.267,0-0.521-0.153-0.638-0.411
		c-0.159-0.353-0.002-0.767,0.35-0.926c1.421-0.642,2.892-1.237,4.371-1.771c0.363-0.131,0.764,0.058,0.896,0.421
		c0.131,0.363-0.058,0.764-0.421,0.896c-1.445,0.521-2.882,1.103-4.27,1.73C25.716,157.078,25.619,157.098,25.522,157.098z
		 M79.175,156.551c-0.078,0-0.157-0.013-0.235-0.041l-0.326-0.117c-1.35-0.481-2.718-0.934-4.066-1.343
		c-0.37-0.112-0.579-0.503-0.467-0.873c0.113-0.369,0.505-0.576,0.873-0.466c1.37,0.415,2.76,0.875,4.131,1.364l0.325,0.116
		c0.364,0.13,0.554,0.531,0.424,0.895C79.731,156.373,79.462,156.551,79.175,156.551z M260.704,155.186
		c-0.23,0-0.456-0.114-0.59-0.321c-0.209-0.325-0.114-0.758,0.21-0.967c1.329-0.854,2.668-1.687,3.979-2.474
		c0.331-0.197,0.761-0.092,0.96,0.24c0.199,0.331,0.092,0.761-0.239,0.96c-1.299,0.779-2.625,1.604-3.942,2.45
		C260.965,155.15,260.833,155.186,260.704,155.186z M33.388,154.19c-0.303,0-0.582-0.197-0.671-0.503
		c-0.109-0.371,0.104-0.759,0.474-0.868c1.495-0.438,3.032-0.828,4.57-1.157c0.376-0.08,0.75,0.159,0.831,0.537
		c0.081,0.379-0.16,0.75-0.538,0.831c-1.504,0.322-3.007,0.702-4.468,1.132C33.519,154.181,33.453,154.19,33.388,154.19z
		 M71.159,154.074c-0.058,0-0.116-0.007-0.174-0.021c-1.498-0.385-3.014-0.729-4.506-1.023c-0.379-0.075-0.626-0.443-0.551-0.822
		c0.075-0.379,0.441-0.627,0.821-0.551c1.519,0.3,3.061,0.65,4.583,1.041c0.375,0.097,0.6,0.478,0.503,0.852
		C71.755,153.864,71.47,154.074,71.159,154.074z M350.115,153.62c-0.165,0-0.332-0.058-0.465-0.177
		c-1.163-1.033-2.355-2.028-3.546-2.955c-0.305-0.238-0.359-0.677-0.122-0.982c0.238-0.305,0.678-0.359,0.981-0.122
		c1.215,0.946,2.431,1.959,3.616,3.014c0.289,0.257,0.314,0.699,0.058,0.987C350.5,153.541,350.309,153.62,350.115,153.62z
		 M62.94,152.405c-0.034,0-0.069-0.002-0.104-0.009c-1.531-0.228-3.074-0.409-4.587-0.541c-0.384-0.034-0.669-0.373-0.636-0.758
		s0.374-0.669,0.758-0.636c1.541,0.135,3.112,0.32,4.671,0.552c0.382,0.057,0.646,0.412,0.589,0.795
		C63.579,152.155,63.281,152.405,62.94,152.405z M41.574,152.37c-0.339,0-0.637-0.247-0.691-0.593
		c-0.059-0.382,0.203-0.738,0.585-0.798c1.537-0.238,3.111-0.426,4.678-0.557c0.388-0.028,0.723,0.254,0.755,0.639
		c0.032,0.386-0.254,0.724-0.639,0.756c-1.534,0.128-3.075,0.312-4.581,0.544C41.645,152.367,41.609,152.37,41.574,152.37z
		 M54.589,151.628c-0.008,0-0.018,0-0.026-0.001c-1.551-0.057-3.098-0.062-4.615-0.018c-0.385,0.02-0.708-0.293-0.72-0.679
		c-0.011-0.386,0.292-0.708,0.679-0.719c1.549-0.047,3.126-0.039,4.707,0.018c0.387,0.014,0.688,0.338,0.674,0.725
		C55.274,151.332,54.963,151.628,54.589,151.628z M267.888,150.845c-0.244,0-0.481-0.128-0.61-0.355
		c-0.189-0.336-0.071-0.763,0.265-0.953c1.372-0.775,2.758-1.526,4.121-2.235c0.342-0.178,0.765-0.045,0.943,0.298
		c0.178,0.343,0.045,0.765-0.298,0.943c-1.35,0.701-2.721,1.444-4.077,2.211C268.122,150.816,268.004,150.845,267.888,150.845z
		 M343.531,148.424c-0.138,0-0.276-0.04-0.398-0.125c-1.272-0.882-2.578-1.719-3.881-2.487c-0.333-0.196-0.443-0.625-0.248-0.958
		c0.196-0.333,0.627-0.443,0.958-0.248c1.332,0.785,2.667,1.641,3.968,2.543c0.317,0.22,0.397,0.655,0.176,0.973
		C343.971,148.319,343.752,148.424,343.531,148.424z M275.322,146.954c-0.261,0-0.511-0.146-0.631-0.397
		c-0.167-0.348-0.021-0.765,0.327-0.933c1.425-0.686,2.861-1.341,4.269-1.948c0.354-0.153,0.767,0.011,0.92,0.366
		c0.152,0.355-0.011,0.766-0.366,0.919c-1.39,0.599-2.809,1.246-4.216,1.923C275.527,146.932,275.424,146.954,275.322,146.954z
		 M336.336,144.117c-0.107,0-0.215-0.024-0.316-0.076c-1.367-0.695-2.776-1.341-4.185-1.919c-0.358-0.146-0.528-0.554-0.383-0.912
		c0.146-0.357,0.557-0.527,0.912-0.381c1.444,0.591,2.889,1.253,4.289,1.966c0.345,0.174,0.481,0.596,0.306,0.94
		C336.836,143.977,336.59,144.117,336.336,144.117z M283.016,143.604c-0.279,0-0.544-0.169-0.652-0.446
		c-0.14-0.36,0.039-0.765,0.398-0.905c1.474-0.573,2.96-1.11,4.418-1.597c0.366-0.123,0.763,0.075,0.885,0.442
		c0.122,0.366-0.075,0.762-0.442,0.884c-1.436,0.48-2.9,1.009-4.353,1.574C283.186,143.589,283.1,143.604,283.016,143.604z
		 M290.962,140.912c-0.304,0-0.584-0.2-0.672-0.507c-0.107-0.371,0.107-0.758,0.479-0.865c1.523-0.438,3.055-0.832,4.555-1.171
		c0.376-0.084,0.751,0.152,0.836,0.528c0.086,0.377-0.15,0.751-0.527,0.837c-1.473,0.333-2.979,0.721-4.477,1.151
		C291.091,140.903,291.025,140.912,290.962,140.912z M328.604,140.875c-0.074,0-0.148-0.011-0.222-0.036
		c-1.451-0.483-2.938-0.912-4.42-1.271c-0.376-0.092-0.605-0.47-0.515-0.845c0.092-0.376,0.472-0.605,0.845-0.515
		c1.521,0.368,3.045,0.808,4.532,1.304c0.366,0.123,0.565,0.519,0.442,0.885C329.17,140.69,328.896,140.875,328.604,140.875z
		 M299.134,139.016c-0.334,0-0.628-0.239-0.688-0.579c-0.066-0.381,0.188-0.744,0.568-0.81c1.555-0.272,3.123-0.495,4.662-0.659
		c0.383-0.042,0.729,0.236,0.77,0.621c0.042,0.384-0.237,0.729-0.621,0.77c-1.508,0.162-3.045,0.38-4.569,0.646
		C299.214,139.013,299.174,139.016,299.134,139.016z M320.479,138.831c-0.039,0-0.079-0.004-0.12-0.01
		c-1.499-0.26-3.035-0.46-4.564-0.597c-0.385-0.035-0.669-0.375-0.634-0.759c0.033-0.385,0.368-0.671,0.759-0.635
		c1.567,0.14,3.141,0.346,4.678,0.611c0.381,0.066,0.636,0.428,0.57,0.809C321.109,138.591,320.813,138.831,320.479,138.831z
		 M307.47,138.071c-0.371,0-0.68-0.292-0.698-0.665c-0.02-0.385,0.278-0.714,0.663-0.733c1.575-0.079,3.159-0.099,4.716-0.059
		c0.386,0.009,0.691,0.331,0.683,0.717c-0.011,0.38-0.322,0.682-0.699,0.682c-0.007,0-0.013,0-0.019,0
		c-1.523-0.039-3.071-0.02-4.611,0.057C307.492,138.071,307.48,138.071,307.47,138.071z"/>
</g>
<path fill="#3074FE" d="M287.476,103.68L134.307,41.79c-1.117-0.451-2.117-0.372-2.812,0.114l0,0l-0.004,0.003
	c-0.041,0.028-0.082,0.054-0.121,0.085l-2.645,1.864l1.782,1.545v111.896c0,2.099,1.701,4.487,3.801,5.336l151.844,61.355
	l1.047,2.58l3.097-2.164c0.608-0.429,0.981-1.167,0.981-2.146V109.017C291.276,106.917,289.574,104.528,287.476,103.68z"/>
<path fill="#3074FE" d="M283.994,231.532h-8.444v0.025l-144.293-58.035c-3.262-1.314-8.549-1.313-11.812,0L22.027,213.17v-0.445
	h-7.137v4.691c-0.027,0.875,0.784,1.751,2.441,2.418l150.291,60.447c3.262,1.312,8.55,1.313,11.812,0l102.113-41.561
	c1.634-0.656,2.449-1.517,2.447-2.378l0,0V231.532z"/>
<path fill="#92F1FF" d="M281.547,229.154l-150.291-60.447c-3.262-1.313-8.549-1.312-11.812,0L17.332,210.267
	c-3.261,1.313-3.261,3.44,0,4.754l150.291,60.445c3.262,1.313,8.55,1.315,11.812,0l102.113-41.56
	C284.81,232.595,284.81,230.468,281.547,229.154z"/>
<path fill="#3074FE" d="M132.35,174.815c-3.44-1.383-9.016-1.383-12.456,0l-50.012,20.212l139.19,55.981
	c3.438,1.384,9.014,1.384,12.454,0l50.012-20.209L132.35,174.815z"/>
<path fill="#FFFFFF" d="M157.279,235.342l-29.549-11.949c-2.201-0.888-5.769-0.888-7.97,0l-28.909,11.822
	c-2.2,0.886-2.2,2.32,0,3.204l29.549,11.952c2.201,0.884,5.769,0.886,7.969,0l28.91-11.824
	C159.479,237.663,159.479,236.228,157.279,235.342z"/>
<path fill="#92F1FF" d="M288.304,224.338c0,2.098-1.701,3.111-3.801,2.264l-153.168-61.89c-2.1-0.848-3.802-3.236-3.802-5.336
	V46.133c0-2.098,1.702-3.113,3.802-2.264l153.168,61.89c2.1,0.848,3.801,3.238,3.801,5.337V224.338z"/>
<path fill="#FFFFFF" d="M133,153.302c-0.469-0.189-0.979-0.92-1.022-1.252l0.001-103.009l150.858,60.955
	c0.467,0.189,0.977,0.918,1.021,1.251l-0.003,103.01L133,153.302z"/>
<polygon fill="#3074FE" points="259.699,181.079 327.784,208.589 327.784,172.702 259.699,145.193 "/>
<path fill="#4FB6FE" d="M211.349,191.201c0,1.455-1.179,2.158-2.636,1.569l-26.807-10.942c-1.457-0.589-2.636-2.246-2.636-3.701l0,0
	c0-1.456,1.179-2.159,2.636-1.569l26.807,10.942C210.17,188.089,211.349,189.746,211.349,191.201L211.349,191.201z"/>
<g>
	<path fill="#FFFFFF" d="M54.651,222.408c0.949-0.39,2.488-0.39,3.437,0c0.95,0.391,0.95,1.024,0,1.414
		c-0.949,0.392-2.487,0.392-3.437,0C53.702,223.433,53.702,222.799,54.651,222.408z"/>
	<path fill="#FFFFFF" d="M46.388,218.945c0.949-0.39,2.487-0.39,3.437,0c0.949,0.391,0.949,1.023,0,1.413
		c-0.949,0.391-2.487,0.391-3.437,0C45.438,219.969,45.438,219.336,46.388,218.945z"/>
	<path fill="#F43F7E" d="M38.124,215.481c0.949-0.392,2.487-0.392,3.436,0c0.949,0.391,0.949,1.023,0,1.414s-2.487,0.391-3.436,0
		S37.175,215.872,38.124,215.481z"/>
	<path fill="#FFFFFF" d="M29.86,212.018c0.949-0.39,2.488-0.39,3.437,0c0.949,0.391,0.949,1.024,0,1.416
		c-0.949,0.389-2.487,0.389-3.437,0C28.911,213.042,28.911,212.408,29.86,212.018z"/>
</g>
<path fill="#92F1FF" d="M208.901,19.168L180.358,7.775c-1.559-0.624-2.82,0.133-2.82,1.69v13.894c0,1.558,1.262,3.325,2.82,3.949
	l23.944,9.552l5.58,5.427c1.016,0.987,1.838,0.964,1.838-0.05v-19.12C211.721,21.561,210.458,19.792,208.901,19.168z"/>
<g>
	<path fill="#FFFFFF" d="M281.089,171.177c-0.007-0.885-0.72-1.892-1.595-2.249l-9.468-3.908c-0.875-0.356-1.577,0.07-1.571,0.955
		l0,0c0.006,0.883,0.721,1.891,1.595,2.249l9.467,3.907C280.392,172.49,281.095,172.062,281.089,171.177L281.089,171.177z"/>
	<path fill="#FFFFFF" d="M292.11,175.643c-0.006-0.885-0.72-1.891-1.595-2.247l-4.745-1.893c-0.874-0.356-1.579,0.069-1.572,0.955
		l0,0c0.006,0.884,0.722,1.891,1.596,2.249l4.745,1.89C291.413,176.956,292.116,176.529,292.11,175.643L292.11,175.643z"/>
	<path fill="#FFFFFF" d="M292.067,169.454c-0.007-0.885-0.721-1.893-1.595-2.249l-20.491-8.356
		c-0.874-0.358-1.578,0.069-1.572,0.953l0,0c0.007,0.885,0.722,1.893,1.597,2.25l20.49,8.356
		C291.37,170.764,292.075,170.337,292.067,169.454L292.067,169.454z"/>
</g>
<g>
	<g>
		<path fill="#4FB6FE" d="M220.629,246.883c0.181,0,0.353-0.107,0.424-0.286c0.095-0.234-0.02-0.501-0.254-0.596l-133.314-53.62
			c-0.234-0.092-0.501,0.019-0.595,0.253c-0.094,0.234,0.02,0.501,0.253,0.596l133.316,53.62
			C220.514,246.873,220.572,246.883,220.629,246.883z"/>
	</g>
	<g>
		<path fill="#4FB6FE" d="M231.697,242.387c0.181,0,0.352-0.109,0.424-0.287c0.095-0.234-0.02-0.502-0.253-0.596L98.553,187.883
			c-0.235-0.093-0.501,0.02-0.595,0.255c-0.094,0.233,0.02,0.499,0.253,0.594l133.316,53.62
			C231.582,242.376,231.64,242.387,231.697,242.387z"/>
	</g>
	<g>
		<path fill="#4FB6FE" d="M242.899,237.787c0.181,0,0.353-0.109,0.425-0.287c0.094-0.234-0.02-0.5-0.254-0.595l-133.315-53.62
			c-0.234-0.094-0.501,0.019-0.595,0.253c-0.094,0.233,0.019,0.501,0.253,0.594l133.316,53.622
			C242.785,237.775,242.843,237.787,242.899,237.787z"/>
	</g>
	<g>
		<path fill="#4FB6FE" d="M254.108,233.477c0.181,0,0.353-0.109,0.425-0.287c0.095-0.234-0.02-0.502-0.254-0.595l-133.315-53.622
			c-0.235-0.091-0.501,0.021-0.596,0.255c-0.094,0.233,0.02,0.5,0.254,0.594l133.315,53.621
			C253.994,233.466,254.052,233.477,254.108,233.477z"/>
	</g>
</g>
<g>
	<path fill="#FFFFFF" d="M233.544,197.931c0,0,2.879,4.5,3.958,9.839c1.081,5.339,4.56,2.359,4.92,1.21s2.82-12.968,2.82-12.968
		l-3.421-3.178L233.544,197.931z"/>
	<path fill="#13217D" d="M244.064,194.928c-0.088,0,0.348,2.82-0.99,6.343c-1.339,3.521-3.578,6.343-3.869,5.122
		c-0.292-1.224-1.223-0.991-1.921-0.904c-0.699,0.088-0.437,1.747,0,3.696c0.436,1.951,0.581,5.413-1.019,7.333
		c-1.601,1.921-2.183,2.388-1.834,3.988c0.35,1.601,0.814,2.646,1.427,2.239c0.611-0.407,6.663-4.408,9.064-9.646
		s2.663-6.329,2.663-6.329s0.959,0.394,1.352-0.131c0.394-0.524,3.275-6.723,3.493-7.683
		C252.649,197.996,247.455,194.928,244.064,194.928z"/>
	<path fill="#13217D" d="M217.442,137.342c6.825-9.233,16.219-16.432,23.924-24.858c2.479-2.71,4.217-6.694,5.203-10.464
		c1.175-4.479-0.717-9.35-4.536-11.707c-3.784-2.336-8.746-1.717-11.903,1.481c-2.685,2.721-4.917,6.095-7.271,9.126
		c-7.191,9.262-13.935,17.345-19.849,27.578c-1.39,2.415-3.295,6.073-3.927,8.81c-0.894,3.867,1.174,8.507,2.833,11.999
		c2.64,5.554,5.803,10.844,8.988,16.067c6.156,10.092,12.674,19.947,19.305,29.704c0.894,1.313,1.842,3.066,2.967,4.618
		c2.197,3.031,11.343-4.101,10.318-6.214c-1.394-2.881-3.447-5.609-5.004-8.31c-2.864-4.971-5.693-9.967-8.466-14.996
		c-2.997-5.44-5.94-10.915-8.726-16.478c-1.443-2.885-2.851-5.792-4.134-8.759c-0.51-1.177-1.002-2.364-1.439-3.572
		c-0.273-0.754-0.474-0.88-0.01-1.579C216.267,138.956,216.849,138.144,217.442,137.342
		C218.384,136.069,216.971,137.979,217.442,137.342z"/>
	<path fill="#FFFFFF" d="M216.833,208.464c0,0-1.034,6.858-2.56,8.308c-2.442,2.321-0.372,4.796-0.071,4.796
		c0.3,0,6.72-0.42,6.72-0.42s3.929-2.312,4.718-5.135c0.787-2.822,1.04-5.003,1.04-5.003L216.833,208.464z"/>
	<path fill="#3074FE" d="M245.727,39.611c-0.652-0.225-1.339,0.353-1.775,0.762c-0.859,0.805-1.551,1.795-2.196,2.774
		c-1.754,2.663-3.206,5.531-4.578,8.405c-1.055,2.213-2.078,4.454-2.956,6.744c-0.651,1.699-1.177,3.451-1.756,5.176
		c-0.889,2.654-1.784,5.324-2.861,7.91c-0.759-1.044-1.323-1.363-1.97-2.48c-0.626-1.081-7.193,3.227-6.691,4.292
		c0.614,1.303,1.717,4.401,2.453,5.636c1.178,1.976,2.733,3.922,4.902,4.847c2.453,1.046,5.287,0.532,7.202-1.333
		c1.607-1.566,2.622-3.763,3.588-5.752c1.284-2.646,2.426-5.357,3.53-8.082c2.123-5.247,4.017-10.588,5.924-15.918
		c0.484-1.35,0.967-2.7,1.45-4.05c0.562-1.573,0.338-3.289-0.299-4.808C248.953,41.972,247.583,40.254,245.727,39.611
		C242.604,38.53,248.85,40.692,245.727,39.611z"/>
	<path fill="#13217D" d="M261.633,101.498c-2.717,6.964-3.289,12.514-5.981,19.487c-3.681,9.533-14.791,37.364-16.537,44.263
		c-1.479,5.841-4.7,18.582-6.173,24.425c-1.309,5.189-2.613,10.375-3.918,15.564c-0.411,1.637-0.798,4.058-1.457,6.393
		c-1.214,4.3-12.307,0.495-11.511-2.875c0.655-2.781,0.992-5.626,1.487-8.439c2.01-11.404,4.031-22.805,6.062-34.207
		c1.214-6.811,2.053-13.874,3.876-20.563c4.367-16.026,7.982-31.796,12.965-47.639c0.417-1.324,2.344-2.764,2.902-4.04
		c1.391-3.175,4.438-5.432,7.877-5.852C258.561,87.119,264.342,94.641,261.633,101.498z"/>
	<path fill="#FFFFFF" d="M266.823,43.568c3.1,17.718,2.437,34.37-2.063,51.848c-0.548,2.13-1.139,4.254-1.854,6.29
		c-5.495,15.611-39.198,0.673-33.927-12.137c1.06-2.572,2.339-5.115,3.377-7.78c3.833-9.857,5.393-20.358,6.272-30.835
		C239.275,37.874,264.369,28.413,266.823,43.568z"/>
	<path fill="#3074FE" d="M256.461,33.687c0,0,2.014,2.337,1.425,3.817c-1.592,4-3.386,9.315-6.801,18.481
		c-5.047,13.547-7.574,18.41-2.63,36.083s4.839,27.877,13.99,27.877c2.669,0,5.914,0,7.7,0c1.946,0,3.435-1.521,3.435-3.298
		c0-9.407,0.328-40.098-1.035-55.087c-0.918-10.104-2.991-18.79-6.78-23.508C263.046,34.665,256.461,33.687,256.461,33.687z"/>
	<path fill="#3074FE" d="M249.104,38.888c0,0-5.446,27-7.545,32.191c-6.41,15.854-15.773,25.938-15.773,25.938
		s8.051-17.318,9.888-36.345c1.837-19.028,13.431-24.513,13.431-24.513V38.888z"/>
	<g>
		<path fill="#FFFFFF" d="M228.729,88.825c-0.04,0-0.081-0.007-0.12-0.021c-0.182-0.065-0.275-0.267-0.209-0.448
			c1.809-4.971,4.836-13.29,6.268-22.521c0.029-0.191,0.207-0.319,0.399-0.292c0.19,0.029,0.321,0.208,0.292,0.399
			c-1.442,9.298-4.484,17.657-6.302,22.652C229.005,88.736,228.871,88.825,228.729,88.825z"/>
	</g>
	<g>
		<path fill="#F8A786" d="M258.087,36.181c-2.961-9.312-6.469-14.635-6.648-14.938c-1.367-2.324-4.149-3.316-6.212-2.213
			c-2.062,1.102-2.624,3.875-1.26,6.2c0.049,0.089,2.627,5.578,5.137,13.659C250.031,41.876,259.029,39.142,258.087,36.181z"/>
	</g>
	<path fill="#F6895C" d="M245.227,19.029c-2.062,1.102-2.624,3.875-1.26,6.2c0.044,0.077,2.319,5.282,4.557,11.902
		c2.034-3.201,3.592-7.489,3.595-11.872c0.004-2.67-1.562-4.848-3.803-6.495C247.271,18.462,246.172,18.522,245.227,19.029z"/>
	<path fill="#F8A786" d="M252.87,18.363c-0.316-9.959-19.163-13.791-20.773-9.738c-1.623,4.089-4.185,6.766-2.394,11.466
		c0.904,2.378,4.801,11.792,5.791,12.468c0.628,0.431,1.197,0.025,1.511-0.083c2.255,2.873,4.392,4.923,5.545,5.022
		C246.623,37.85,253.188,28.323,252.87,18.363z"/>
	<path fill="#13217D" d="M224.893,12.792c0,0,2.822,9.982,9.516,9.478c7.037-0.53,8.528-5.108,9.83-2.927s2.158,2.855,2.886,2.641
		c1.543-0.454-0.147-3.345,1.76-3.992c0.954-0.324,1.81,0.486,1.27,3.213c-0.41,2.071,2.004,4.079,2.004,4.079
		s1.675-3.57,2.123-8.465c0.745-8.146-8.24-19.457-19.748-12.814C229.418,6.958,228.701,11.913,224.893,12.792z"/>
	<g>
		<path fill="#144AFE" d="M273.57,90.741c-7.559,5.063-19.792,12.021-21.519,12.824c-1.677,0.779,3.633,6.543,4.916,6.184
			c0.613-0.171,8.703-3.775,16.647-7.902C273.614,98.368,273.604,94.595,273.57,90.741z"/>
		<path fill="#144AFE" d="M272.637,64.54c0.06,0.177,0.119,0.355,0.18,0.533c-0.082-1.244-0.172-2.421-0.271-3.512
			c-0.707-7.791-2.435-15.746-4.925-21.144c-0.374,4.121,0.447,10.597,1.607,14.351C270.247,58.064,271.518,61.275,272.637,64.54z"
			/>
	</g>
	<path fill="#F8A786" d="M252.644,103.208c0,0-0.864,0.495-2.89,1.315c-2.028,0.819-3.516,1.681-5.412,1.961
		c-1.898,0.281-1.984,1.078-1.445,1.445c0.538,0.367,2.393,0.302,2.63,0.302c0.238,0-0.193,0.798-0.389,0.992
		c-0.193,0.194,0.303,1.573,3.451,3.083c3.147,1.509,3.795,1.271,4.161,1.229c0.366-0.043,4.055-5.348,4.055-5.348L252.644,103.208z
		"/>
	<path fill="#3074FE" d="M284.245,71.372c-3.444-10.125-11.11-30.375-21.598-35.708c-4.405-2.344-1.276,10.912,1.288,17.061
		c1.328,3.186,2.898,6.262,4.322,9.404c1.045,2.304,2.074,4.616,3.072,6.941c1.235,2.873,2.445,5.757,3.508,8.7
		c0.64,1.772,1.559,3.875,1.769,5.833c-3.535,4.337-22.959,18.058-25.129,19.332c-1.596,0.936,4.237,6.168,5.481,5.688
		c0.867-0.334,16.918-9.475,25.368-16.136c2.252-1.774,4.336-3.895,4.77-6.845C287.755,80.936,285.731,75.743,284.245,71.372z"/>
	<g>
		<path fill="#FFFFFF" d="M275.5,81.336c-0.143,0-0.277-0.088-0.329-0.231c-0.062-0.174-0.24-0.711-0.492-1.474
			c-0.881-2.66-2.713-8.195-3.67-10.422c-0.895-2.083-1.897-4.352-3.069-6.935c-0.54-1.191-1.11-2.394-1.663-3.557
			c-0.276-0.584-0.554-1.168-0.829-1.753c-0.081-0.175-0.007-0.383,0.169-0.466c0.174-0.082,0.383-0.006,0.465,0.168
			c0.274,0.584,0.551,1.168,0.828,1.751c0.553,1.166,1.125,2.372,1.667,3.568c1.173,2.588,2.18,4.861,3.075,6.948
			c0.969,2.254,2.808,7.808,3.691,10.478c0.249,0.754,0.425,1.286,0.486,1.457c0.065,0.182-0.028,0.382-0.211,0.448
			C275.579,81.33,275.539,81.336,275.5,81.336z"/>
	</g>
	<g>
		<path fill="#FFFFFF" d="M253.505,101.948c-0.111,0-0.222-0.053-0.289-0.152c-0.109-0.159-0.068-0.377,0.091-0.486
			c5.315-3.637,18.024-13.285,22.146-17.459c0.137-0.138,0.358-0.139,0.495-0.003c0.138,0.136,0.139,0.357,0.004,0.495
			c-4.149,4.203-16.914,13.895-22.25,17.546C253.641,101.928,253.572,101.948,253.505,101.948z"/>
	</g>
	<path fill="#13217D" d="M226.075,214.733c0,0-1.251,2.848-4.012,4.224c-2.761,1.374-4.5,1.734-4.104,0.55
		c0.396-1.186,0.105-2.19-1.791-3.023c-1.895-0.832-2.438-0.452-4.469,2.206c-2.033,2.66-4.73,5.461-6.771,6.078
		c-2.039,0.618-1.886,2.984-1.919,3.802c-0.032,0.822,2.889,1.599,6.684,0.798s10.553-2.667,12.461-4.153
		c1.908-1.484,1.646-0.363,2.44-0.6c0.796-0.236,3.873-1.213,4.581-1.546C229.884,222.736,228.747,217.86,226.075,214.733z"/>
	<path fill="#3074FE" d="M226.326,65.831c0.326,0.73,0.102,1.146-0.498,0.93l-8.436-3.047c-0.602-0.218-1.352-0.985-1.676-1.715
		l-7.655-16.692c-0.326-0.73-0.102-1.146,0.499-0.93l8.433,3.046c0.604,0.218,1.353,0.985,1.68,1.715L226.326,65.831z"/>
	<path fill="#F8A786" d="M222.149,73.125c0,0-0.633-0.645-2.201-1.858c-1.569-1.213-5.178-8.119-5.286-8.344
		c-0.605-1.258,1.123-2.675,4.283-2.441c4.79,0.354,8.062,9.314,8.062,9.314s0.033,1.183-1.503,2.362
		C223.714,73.532,222.149,73.125,222.149,73.125z"/>
	<g>
		<path fill="#FFFFFF" d="M232.466,124.649c-0.037,0-0.074-0.005-0.112-0.019c-0.183-0.062-0.28-0.261-0.218-0.444
			c0.024-0.074,2.542-7.481,3.881-12.415c0.051-0.186,0.242-0.297,0.429-0.246s0.296,0.243,0.245,0.429
			c-1.343,4.955-3.867,12.383-3.893,12.458C232.748,124.558,232.612,124.649,232.466,124.649z"/>
	</g>
	<g>
		<path fill="#FFFFFF" d="M220.242,183.103c-0.027,0-0.055-0.003-0.082-0.01c-0.188-0.046-0.304-0.235-0.259-0.423
			c0.651-2.697,3.77-19.868,4.631-27.001c0.023-0.192,0.199-0.329,0.39-0.305c0.191,0.022,0.328,0.197,0.306,0.389
			c-0.864,7.15-3.993,24.374-4.646,27.082C220.543,182.996,220.4,183.103,220.242,183.103z"/>
	</g>
	<path fill="#FFFFFF" d="M216.569,52.042c0.222,1.064-0.19,1.686-0.921,1.389c-0.729-0.298-1.499-1.4-1.721-2.465
		c-0.221-1.064,0.19-1.687,0.921-1.39C215.578,49.874,216.349,50.977,216.569,52.042z"/>
</g>
<g>
	<polygon fill="#3074FE" points="99.656,103.922 192.281,141.349 192.282,92.527 99.657,55.102 	"/>
	<path fill="none" stroke="#92F1FF" stroke-width="3" stroke-miterlimit="10" d="M138.389,108.279c0,1.951-1.582,2.9-3.533,2.118
		l-26.499-10.616c-1.952-0.782-3.534-2.998-3.534-4.948v-26.5c0-1.951,1.582-2.899,3.534-2.117l26.499,10.616
		c1.951,0.781,3.533,2.997,3.533,4.949V108.279z"/>
	<g>
		<path fill="#92F1FF" d="M170.711,99.798c-0.007-0.884-0.72-1.891-1.595-2.249l-24.585-10.054
			c-0.875-0.357-1.579,0.069-1.572,0.954l0,0c0.005,0.886,0.721,1.891,1.595,2.249l24.585,10.056
			C170.014,101.111,170.717,100.684,170.711,99.798L170.711,99.798z"/>
		<path fill="#92F1FF" d="M162.441,90.262c-0.006-0.884-0.721-1.892-1.595-2.249l-16.361-6.691
			c-0.875-0.358-1.578,0.069-1.571,0.954l0,0c0.006,0.884,0.72,1.892,1.595,2.249l16.361,6.693
			C161.745,91.573,162.448,91.147,162.441,90.262L162.441,90.262z"/>
	</g>
	<g>
		<path fill="#92F1FF" d="M153.992,99.216c-0.006-0.884-0.72-1.892-1.595-2.249l-7.866-3.299c-0.875-0.358-1.579,0.069-1.572,0.953
			l0,0c0.005,0.886,0.721,1.891,1.595,2.249l7.867,3.3C153.295,100.529,153.999,100.102,153.992,99.216L153.992,99.216z"/>
	</g>
</g>
<path fill="#92F1FF" d="M340.732,117.645c0-5.677-4.604-12.141-10.281-14.436c-5.677-2.296-10.28,0.447-10.28,6.125
	c0,1.667,0.404,3.397,1.108,5.073l-0.01-0.003l0.041,0.083c0.229,0.539,0.49,1.069,0.78,1.592l8.36,17.065l8.361-10.305
	c0.29-0.288,0.551-0.609,0.781-0.962l0.04-0.049l-0.009-0.004C340.326,120.714,340.732,119.31,340.732,117.645z M330.451,118.246
	c-2.626-1.062-4.756-4.052-4.756-6.679c0-2.626,2.13-3.896,4.756-2.833c2.627,1.062,4.756,4.051,4.756,6.677
	C335.207,118.039,333.078,119.307,330.451,118.246z"/>
<path fill="#F43F7E" d="M303.1,163.211c0,2.585-2.095,3.802-4.679,2.719c-2.584-1.084-4.68-4.056-4.68-6.64s2.096-3.801,4.68-2.72
	C301.005,157.654,303.1,160.626,303.1,163.211z"/>
<path fill="#92F1FF" d="M336.161,143.018c0,2.629-2.131,3.867-4.758,2.766c-2.628-1.102-4.76-4.125-4.76-6.754
	c0-2.627,2.132-3.866,4.76-2.764C334.03,137.367,336.161,140.391,336.161,143.018z"/>
<path fill="#92F1FF" d="M42.264,130.647c0-5.678-4.603-12.141-10.281-14.436c-5.678-2.296-10.281,0.447-10.281,6.125
	c0,1.667,0.405,3.397,1.109,5.073l-0.009-0.002l0.041,0.082c0.229,0.539,0.49,1.069,0.78,1.592l8.361,17.064l8.36-10.305
	c0.291-0.288,0.551-0.609,0.781-0.962l0.041-0.049l-0.009-0.004C41.858,133.717,42.264,132.313,42.264,130.647z M31.983,131.249
	c-2.626-1.062-4.756-4.052-4.756-6.679c0-2.627,2.129-3.896,4.756-2.833c2.627,1.062,4.756,4.051,4.756,6.678
	C36.739,131.041,34.61,132.31,31.983,131.249z"/>
<path fill="#92F1FF" d="M37.693,156.021c0,2.628-2.13,3.866-4.759,2.766c-2.628-1.102-4.758-4.126-4.758-6.754
	c0-2.628,2.13-3.866,4.758-2.764C35.562,150.369,37.693,153.392,37.693,156.021z"/>
<g>
	<path fill="#FFFFFF" d="M317.207,185.013l-0.178-0.059c-0.525,2.334-2.167,3.624-4.11,2.986s-3.585-3.006-4.109-5.685l-0.112-0.035
		c-0.71-0.233-1.598-3.523-0.361-3.183c-0.01-0.18-0.015-0.363-0.015-0.551c0-2.982,1.771-4.324,4.336-3.483
		c0.38,0.125,0.749,0.302,1.101,0.521c0.248,0.153,0.451,0.445,0.615,0.833c0.162,0.018,0.328,0.054,0.5,0.109
		c1.497,0.491,2.71,2.288,2.71,4.012c0,0.249-0.062,0.86-0.143,1.545l0.089,0.028C318.824,182.48,317.926,185.25,317.207,185.013z"
		/>
	<path fill="#FFFFFF" d="M306.376,187.92c1.924,0.153,3.186-0.088,3.186-0.088l1.651,5.577l1.269-2.512
		c-0.842-0.576-0.842-1.767-0.842-1.767c0-0.962,2.5-0.143,2.5,0.82c0,0,0,1.19-0.842,1.216l1.27,3.344l1.651-4.496
		c0,0,1.262,1.071,3.185,2.18c1.199,0.688,2.199,1.955,2.199,3.558v0.715c0,1.969-4.371,1.514-8.712,0.076
		c-4.342-1.412-8.713-3.824-8.713-5.793v-0.714C304.178,188.433,305.178,187.823,306.376,187.92z"/>
</g>
<g>
	<polygon fill="#13217D" points="65.209,169.858 157.833,207.283 157.835,107.157 65.209,69.731 	"/>
	<g>
		<path fill="#92F1FF" d="M119.229,107.603c-0.007-0.884-0.721-1.891-1.595-2.249L93.048,95.3c-0.875-0.357-1.578,0.069-1.571,0.953
			l0,0c0.006,0.886,0.721,1.892,1.595,2.25l24.585,10.055C118.531,108.915,119.234,108.489,119.229,107.603L119.229,107.603z"/>
		<path fill="#92F1FF" d="M110.959,98.067c-0.007-0.884-0.72-1.893-1.595-2.25l-16.361-6.691c-0.874-0.358-1.579,0.069-1.572,0.954
			l0,0c0.006,0.884,0.721,1.892,1.595,2.249l16.361,6.693C110.262,99.377,110.965,98.952,110.959,98.067L110.959,98.067z"/>
	</g>
	<g>
		<path fill="#FFFFFF" d="M104.227,117.483c-0.007-0.884-0.72-1.891-1.596-2.249l-9.467-3.908c-0.874-0.357-1.578,0.07-1.572,0.955
			l0,0c0.006,0.883,0.721,1.892,1.595,2.249l9.467,3.908C103.53,118.796,104.233,118.368,104.227,117.483L104.227,117.483z"/>
		<path fill="#FFFFFF" d="M119.928,123.928c-0.006-0.884-0.72-1.891-1.596-2.248l-9.467-3.909c-0.874-0.357-1.579,0.069-1.572,0.954
			l0,0c0.006,0.884,0.721,1.892,1.595,2.249l9.467,3.908C119.231,125.24,119.935,124.813,119.928,123.928L119.928,123.928z"/>
		<path fill="#FFFFFF" d="M111.076,114.093c-0.007-0.884-0.721-1.891-1.595-2.249l-16.361-6.692
			c-0.874-0.357-1.578,0.07-1.572,0.954l0,0c0.006,0.885,0.721,1.893,1.595,2.25l16.361,6.692
			C110.379,115.406,111.082,114.979,111.076,114.093L111.076,114.093z"/>
	</g>
	<path fill="#F43F7E" d="M85.461,92.736c0-4.012-3.252-8.58-7.265-10.201c-4.012-1.623-7.265,0.315-7.265,4.327
		c0,1.178,0.286,2.401,0.783,3.585l-0.006-0.002l0.028,0.059c0.163,0.381,0.347,0.756,0.552,1.125l5.908,12.059l5.908-7.282
		c0.205-0.204,0.39-0.43,0.551-0.68l0.029-0.035l-0.006-0.002C85.174,94.905,85.461,93.913,85.461,92.736z M78.196,93.161
		c-1.855-0.75-3.36-2.863-3.36-4.72c0-1.856,1.505-2.753,3.36-2.002c1.856,0.75,3.361,2.863,3.361,4.719S80.052,93.91,78.196,93.161
		z"/>
	<g>
		<path fill="#92F1FF" d="M152.722,147.711c-0.087,0-0.176-0.017-0.262-0.052l-82.401-33.294c-0.358-0.144-0.532-0.552-0.387-0.91
			c0.145-0.358,0.552-0.533,0.911-0.387l82.401,33.295c0.358,0.145,0.531,0.552,0.386,0.911
			C153.261,147.545,152.999,147.711,152.722,147.711z"/>
	</g>
	<path fill="#3074FE" d="M150.837,135.355c0,1.459-1.184,2.168-2.643,1.584l-19.821-7.941c-1.459-0.585-2.643-2.242-2.643-3.702
		v-19.821c0-1.459,1.183-2.168,2.643-1.584l19.821,7.941c1.459,0.584,2.643,2.242,2.643,3.701V135.355z"/>
	<path fill="#3074FE" d="M95.584,152.084c0,1.459-1.184,2.168-2.643,1.584l-19.821-7.942c-1.46-0.584-2.643-2.242-2.643-3.701
		v-19.821c0-1.459,1.183-2.168,2.643-1.584l19.821,7.94c1.459,0.584,2.643,2.242,2.643,3.701V152.084z"/>
	<path fill="#FFFFFF" d="M152.566,196.321c0,1.459-1.183,2.169-2.643,1.584l-19.821-7.94c-1.46-0.586-2.643-2.242-2.643-3.701
		v-19.821c0-1.46,1.183-2.169,2.643-1.584l19.821,7.94c1.459,0.586,2.643,2.241,2.643,3.701V196.321z"/>
	<path fill="#92F1FF" d="M95.584,173.302c0,1.46-1.184,2.169-2.643,1.584l-19.821-7.941c-1.46-0.584-2.643-2.242-2.643-3.701
		v-12.958c0-1.459,1.183-2.169,2.643-1.583l19.821,7.941c1.459,0.584,2.643,2.241,2.643,3.701V173.302z"/>
	<path fill="#F43F7E" d="M152.566,167.755c0,1.46-1.183,2.169-2.643,1.585l-19.821-7.94c-1.46-0.585-2.643-2.243-2.643-3.702V144.74
		c0-1.46,1.183-2.168,2.643-1.584l19.821,7.941c1.459,0.584,2.643,2.241,2.643,3.701V167.755z"/>
	<path fill="none" stroke="#92F1FF" stroke-width="3" stroke-miterlimit="10" d="M123.881,184.168c0,1.419-1.151,2.107-2.57,1.54
		l-19.267-7.72c-1.419-0.568-2.569-2.18-2.569-3.598v-39.698c0-1.419,1.15-2.107,2.569-1.539l19.267,7.719
		c1.419,0.567,2.57,2.178,2.57,3.597V184.168z"/>
	<g>
		<path fill="#FFFFFF" d="M142.186,119.747l-0.161-0.053c-0.474,2.109-1.958,3.276-3.714,2.699c-1.756-0.576-3.24-2.716-3.714-5.137
			l-0.101-0.033c-0.642-0.211-1.444-3.185-0.327-2.875c-0.007-0.163-0.011-0.33-0.011-0.498c0-2.695,1.599-3.909,3.917-3.148
			c0.344,0.113,0.677,0.273,0.995,0.47c0.224,0.14,0.408,0.403,0.556,0.753c0.146,0.017,0.297,0.049,0.453,0.1
			c1.352,0.444,2.448,2.067,2.448,3.626c0,0.224-0.056,0.776-0.129,1.396l0.081,0.026
			C143.647,117.458,142.834,119.96,142.186,119.747z"/>
		<path fill="#FFFFFF" d="M132.397,122.375c1.738,0.14,2.879-0.079,2.879-0.079l1.493,5.041l1.146-2.271
			c-0.761-0.52-0.761-1.597-0.761-1.597c0-0.869,2.26-0.127,2.26,0.742c0,0,0,1.076-0.761,1.098l1.146,3.022l1.492-4.062
			c0,0,1.141,0.967,2.879,1.969c1.084,0.624,1.987,1.767,1.987,3.217v0.646c0,1.78-3.95,1.369-7.874,0.07
			c-3.924-1.276-7.874-3.457-7.874-5.237v-0.645C130.411,122.838,131.313,122.287,132.397,122.375z"/>
	</g>
	<path fill="#3074FE" d="M130.794,183.174c0.636-0.439,1.666-0.121,2.301,0.708l0.516,0.674l0.515-0.354
		c0.636-0.439,1.665-0.123,2.301,0.708c0.634,0.831,0.634,1.861,0,2.301l-2.819,1.944l-2.814-3.679
		C130.16,184.644,130.16,183.615,130.794,183.174z"/>
</g>
<g>
	<path fill="#92F1FF" d="M109.327,243.607c-0.275,0-0.537-0.163-0.647-0.435c-0.146-0.357,0.025-0.766,0.383-0.912l6.202-2.538
		c0.357-0.145,0.766,0.026,0.912,0.384c0.146,0.357-0.024,0.766-0.382,0.912l-6.202,2.538
		C109.505,243.591,109.416,243.607,109.327,243.607z"/>
</g>
<g>
	<path fill="#FFFFFF" d="M193.037,25.265c-0.006-0.884-0.72-1.892-1.595-2.249l-9.468-3.908c-0.874-0.357-1.577,0.07-1.571,0.954
		l0,0c0.006,0.884,0.721,1.892,1.595,2.25l9.468,3.908C192.341,26.577,193.043,26.15,193.037,25.265L193.037,25.265z"/>
	<path fill="#FFFFFF" d="M208.738,31.709c-0.006-0.884-0.72-1.891-1.595-2.248l-9.467-3.908c-0.875-0.357-1.579,0.069-1.572,0.954
		l0,0c0.006,0.884,0.721,1.891,1.596,2.249l9.466,3.908C208.042,33.022,208.745,32.594,208.738,31.709L208.738,31.709z"/>
	<path fill="#FFFFFF" d="M199.886,21.875c-0.006-0.884-0.721-1.891-1.595-2.248l-16.361-6.692c-0.874-0.357-1.578,0.07-1.571,0.954
		l0,0c0.007,0.885,0.721,1.892,1.595,2.25l16.361,6.691C199.189,23.187,199.893,22.76,199.886,21.875L199.886,21.875z"/>
</g>
<path fill="#3074FE" d="M218.676,92.565c0,1.485-1.204,2.203-2.689,1.602l-68.071-27.516c-1.486-0.6-2.689-2.292-2.689-3.777l0,0
	c0-1.486,1.204-2.204,2.689-1.603l68.071,27.516C217.472,89.388,218.676,91.08,218.676,92.565L218.676,92.565z"/>
<path fill="#3074FE" d="M142.225,61.251c0,1.918-1.555,2.845-3.474,2.068c-1.918-0.775-3.474-2.959-3.474-4.877
	c0-1.917,1.555-2.845,3.474-2.069C140.67,57.149,142.225,59.333,142.225,61.251z"/>
</svg>
