<?xml version="1.0" encoding="utf-8"?>
<!-- Generator: Adobe Illustrator 15.0.0, SVG Export Plug-In . SVG Version: 6.00 Build 0)  -->
<!DOCTYPE svg PUBLIC "-//W3C//DTD SVG 1.1//EN" "http://www.w3.org/Graphics/SVG/1.1/DTD/svg11.dtd">
<svg version="1.1" id="Layer_1" xmlns="http://www.w3.org/2000/svg" xmlns:xlink="http://www.w3.org/1999/xlink" x="0px" y="0px"
	 width="80px" height="65px" viewBox="0 0 80 65" enable-background="new 0 0 80 65" xml:space="preserve">
<g>
	<g>
		<rect x="45.098" y="0.162" fill="#505050" width="2.812" height="16.88"/>
	</g>
	<g>
		<rect x="50.725" y="0.162" fill="#505050" width="2.812" height="16.88"/>
	</g>
	<g>
		<path fill="#505050" d="M49.317,65c-3.155,0-5.627-2.527-5.627-5.756l1.364-32.786c-0.096-0.031-0.192-0.062-0.289-0.092
			c-3-0.948-5.295-2.237-5.295-9.324V0.162h2.813v16.88c0,5.588,1.254,5.985,3.331,6.641c0.468,0.148,0.946,0.301,1.427,0.499
			l0.91,0.376l-1.449,34.744c0.002,1.618,1.211,2.884,2.815,2.884s2.813-1.266,2.813-2.942l-1.447-34.686l0.91-0.376
			c0.48-0.198,0.959-0.351,1.426-0.499c2.078-0.656,3.332-1.053,3.332-6.641V0.162h2.812v16.88c0,7.086-2.295,8.375-5.295,9.324
			c-0.097,0.03-0.193,0.061-0.289,0.092l1.363,32.727C54.944,62.473,52.473,65,49.317,65z"/>
	</g>
	<g>
		<path fill="#505050" d="M28.217,64.871c-3.103,0-5.627-2.523-5.627-5.627l1.352-18.977l-4.165-2.778v-23.26
			c0-12.545,12.382-14.045,12.507-14.059L33.843,0v59.244C33.843,62.348,31.319,64.871,28.217,64.871z M22.59,35.983l4.275,2.851
			L25.4,59.345c0.003,1.45,1.265,2.713,2.817,2.713c1.551,0,2.813-1.263,2.813-2.813V3.292c-2.819,0.777-8.44,3.285-8.44,10.938
			V35.983z"/>
	</g>
</g>
</svg>
