<?xml version="1.0" encoding="utf-8"?>
<!-- Generator: Adobe Illustrator 15.0.0, SVG Export Plug-In . SVG Version: 6.00 Build 0)  -->
<!DOCTYPE svg PUBLIC "-//W3C//DTD SVG 1.1//EN" "http://www.w3.org/Graphics/SVG/1.1/DTD/svg11.dtd">
<svg version="1.1" id="Layer_1" xmlns="http://www.w3.org/2000/svg" xmlns:xlink="http://www.w3.org/1999/xlink" x="0px" y="0px"
	 width="65px" height="65px" viewBox="0 0 65 65" enable-background="new 0 0 65 65" xml:space="preserve">
<g>
	<g>
		<path fill="#505050" d="M45.786,57.709v-2.293c2.159,0,6.878-1.043,9.082-1.867c-0.114-1.283-0.317-3.826-0.571-6.996
			c-0.761-9.509-2.034-25.422-2.755-28.703c-0.923-4.187-3.091-4.524-4.528-4.748c-1.914-0.297-6.716-1.208-6.918-1.248
			l-0.682-0.129l-1.352-4.434H26.01l-1.351,4.434l-0.68,0.129c-0.204,0.039-5.004,0.95-6.922,1.249
			c-1.436,0.223-3.606,0.561-4.527,4.748c-0.723,3.283-1.996,19.209-2.757,28.725c-0.252,3.159-0.455,5.694-0.575,6.986
			c2.209,0.812,6.928,1.854,9.088,1.854v2.293c-2.489,0-7.443-1.102-9.885-2.014c-0.968-0.362-1.579-1.326-1.484-2.344
			c0.119-1.287,0.32-3.812,0.572-6.959c0.815-10.193,2.046-25.598,2.802-29.035c1.258-5.718,4.871-6.279,6.413-6.521
			c1.457-0.226,4.741-0.837,6.166-1.106l0.947-3.108C24.113,5.652,24.995,5,26.01,5h12.053c1.014,0,1.895,0.652,2.191,1.622
			l0.948,3.109c1.425,0.269,4.707,0.88,6.163,1.106c1.544,0.241,5.156,0.802,6.414,6.521c0.757,3.435,1.987,18.826,2.802,29.011
			c0.253,3.157,0.456,5.692,0.576,6.982c0.092,1.02-0.519,1.983-1.486,2.345C53.229,56.607,48.276,57.709,45.786,57.709z"/>
	</g>
	<g>
		<path fill="#505050" d="M32.116,60H19.433c-1.24,0-2.212-1.007-2.212-2.291V21.042h2.292v36.667h12.604V60z"/>
	</g>
	<g>
		<path fill="#505050" d="M44.642,60H32.116v-2.291h12.526l0.08-36.667h2.29v36.667C47.012,58.95,45.927,60,44.642,60z"/>
	</g>
	<g>
		<rect x="30.97" y="6.146" fill="#505050" width="2.292" height="52.709"/>
	</g>
</g>
</svg>
