<?xml version="1.0" encoding="utf-8"?>
<!-- Generator: Adobe Illustrator 15.0.0, SVG Export Plug-In . SVG Version: 6.00 Build 0)  -->
<!DOCTYPE svg PUBLIC "-//W3C//DTD SVG 1.1//EN" "http://www.w3.org/Graphics/SVG/1.1/DTD/svg11.dtd">
<svg version="1.1" id="Layer_1" xmlns="http://www.w3.org/2000/svg" xmlns:xlink="http://www.w3.org/1999/xlink" x="0px" y="0px"
	 width="80px" height="65px" viewBox="0 0 80 65" enable-background="new 0 0 80 65" xml:space="preserve">
<g>
	<path fill="#505050" d="M71.459,35l-4.756-21h-6.018c0-2-2.134-4-4.756-4H43.246c-1.223,0-2.327,0.477-3.17,1.237
		C39.232,10.477,38.127,10,36.905,10H24.222c-2.622,0-4.756,2-4.756,4h-6.017L8.692,35H3.5v30h7.302l3.171-5h52.206l3.171,5h7.15V35
		H71.459z M57.5,17.414C57.5,18.29,56.79,19,55.915,19h-12.83c-0.875,0-1.585-0.71-1.585-1.586v-2.828
		C41.5,13.71,42.21,13,43.085,13h12.83c0.875,0,1.585,0.71,1.585,1.586V17.414z M38.5,17.414C38.5,18.29,37.791,19,36.915,19h-12.83
		c-0.875,0-1.585-0.71-1.585-1.586v-2.828C22.5,13.71,23.209,13,24.085,13h12.83c0.875,0,1.585,0.71,1.585,1.586V17.414z M15.97,17
		h3.496c0,3,2.134,5,4.756,5h12.684c1.222,0,2.327-0.477,3.17-1.237C40.919,21.523,42.023,22,43.246,22H55.93
		c2.622,0,4.756-2,4.756-5h3.494l4.024,18H11.947L15.97,17z M73.5,62h-2.454l-3.171-5H12.276l-3.171,5H6.5V38h67V62z"/>
	<polygon fill="#505050" points="9.5,3 40.076,3 70.5,3 70.5,24 73.5,24 73.5,0 40.076,0 6.5,0 6.5,24 9.5,24 	"/>
</g>
</svg>
