<?xml version="1.0" encoding="utf-8"?>
<!-- Generator: Adobe Illustrator 15.0.0, SVG Export Plug-In . SVG Version: 6.00 Build 0)  -->
<!DOCTYPE svg PUBLIC "-//W3C//DTD SVG 1.1//EN" "http://www.w3.org/Graphics/SVG/1.1/DTD/svg11.dtd">
<svg version="1.1" id="Layer_1" xmlns="http://www.w3.org/2000/svg" xmlns:xlink="http://www.w3.org/1999/xlink" x="0px" y="0px"
	 width="80px" height="65px" viewBox="0 0 80 65" enable-background="new 0 0 80 65" xml:space="preserve">
<g>
	<path fill="#505050" d="M62.697,32.12c-0.776-3.336-2.171-5.293-3.401-7.019c-1.272-1.786-2.278-3.196-2.278-5.845
		c0-4.411,0.747-7.552,1.47-10.589C59.146,5.897,59.769,3.28,59.769,0h-2.751c0,2.957-0.586,5.422-1.207,8.031
		c-0.724,3.043-1.544,6.492-1.544,11.226c0,3.528,1.418,5.518,2.79,7.441c1.135,1.594,2.309,3.24,2.961,6.045
		c0.368,1.581,0.88,3.31,1.42,5.141c1.624,5.499,3.466,11.733,2.479,17.156c-0.413,2.276-1.149,5.386-2.188,9.245L64.387,65
		c1.058-3.932,1.811-7.118,2.237-9.469c1.103-6.066-0.922-12.921-2.548-18.427C63.547,35.314,63.048,33.622,62.697,32.12z"/>
	<path fill="#505050" d="M24.006,0h-2.751c0,3.28,0.623,5.897,1.281,8.668c0.723,3.037,1.47,6.178,1.47,10.589
		c0,2.691-0.955,4.115-2.165,5.917c-1.15,1.714-2.453,3.655-3.219,6.946c-0.35,1.502-0.849,3.192-1.378,4.983
		c-1.627,5.507-3.651,12.361-2.548,18.428c0.429,2.356,1.181,5.542,2.237,9.469l2.657-0.715c-1.036-3.854-1.771-6.965-2.187-9.245
		c-0.986-5.424,0.855-11.657,2.479-17.156c0.541-1.831,1.052-3.56,1.419-5.141c0.652-2.8,1.756-4.445,2.824-6.036
		c1.293-1.928,2.631-3.922,2.631-7.45c0-4.733-0.82-8.183-1.544-11.226C24.592,5.422,24.006,2.957,24.006,0z"/>
	<path fill="#505050" d="M45.098,51.242c-1.619,1.444-4.151,2.299-4.547,2.392c-0.545-0.118-3.028-0.968-4.625-2.392l-1.649,2.053
		c1.493,1.33,3.224,2.308,5.224,2.78V65h2v-8.925c2-0.473,3.742-1.45,5.235-2.78L45.098,51.242z"/>
	<rect x="39.5" y="29" fill="#505050" width="2" height="4"/>
	<polygon fill="#505050" points="13.975,12.782 12.029,14.787 15.184,18 7.5,18 7.5,21 15.184,21 12.029,23.97 13.975,25.823 
		20.449,19.303 	"/>
	<polygon fill="#505050" points="73.5,18 65.84,18 68.994,14.787 67.049,12.812 60.574,19.271 67.049,25.739 68.994,23.974 
		65.84,21 73.5,21 	"/>
</g>
</svg>
