<?xml version="1.0" encoding="utf-8"?>
<!-- Generator: Adobe Illustrator 15.0.0, SVG Export Plug-In . SVG Version: 6.00 Build 0)  -->
<!DOCTYPE svg PUBLIC "-//W3C//DTD SVG 1.1//EN" "http://www.w3.org/Graphics/SVG/1.1/DTD/svg11.dtd">
<svg version="1.1" id="Layer_1" xmlns="http://www.w3.org/2000/svg" xmlns:xlink="http://www.w3.org/1999/xlink" x="0px" y="0px"
	 width="80px" height="65px" viewBox="0 0 80 65" enable-background="new 0 0 80 65" xml:space="preserve">
<g>
	<g>
		<path fill="#505050" d="M6.827,29.751c-0.499-1.555-0.854-3.115-1.089-4.769c-0.451-3.182-1.291-14.087,6.843-20.846
			c4.087-3.396,10.1-4.852,15.69-3.8C33.011,1.229,37.101,3.83,40,7.747c2.899-3.917,6.986-6.518,11.726-7.41
			c5.596-1.055,11.605,0.403,15.693,3.799c8.134,6.759,7.294,17.664,6.843,20.846c-0.146,1.033-0.349,2.06-0.599,3.052l-3.038-0.822
			c0.222-0.877,0.4-1.787,0.53-2.702c0.39-2.749,1.132-12.161-5.702-17.839c-3.4-2.824-8.445-4.024-13.165-3.136
			c-3.271,0.616-7.822,2.493-10.938,7.94c-0.564,0.988-2.138,0.988-2.702,0c-3.117-5.448-7.67-7.325-10.94-7.941
			c-4.722-0.891-9.765,0.313-13.163,3.136c-6.834,5.678-6.091,15.09-5.703,17.839c0.208,1.465,0.522,2.845,0.963,4.22L6.827,29.751z
			"/>
	</g>
	<g>
		<path fill="#505050" d="M39.998,65c-0.272,0-0.547-0.073-0.797-0.228C25.688,56.5,18.027,47.604,12.314,39.993L14.794,38
			c5.632,7.504,12.544,15.496,24.823,23.241c4.13-5.264,9.454-9.405,14.612-13.422c4.911-3.821,9.55-7.433,12.072-11.348
			l2.613,1.804c-2.821,4.376-7.666,8.148-12.798,12.142c-5.355,4.169-10.894,8.479-14.863,13.936C40.947,64.772,40.479,65,39.998,65
			z"/>
	</g>
	<g>
		<path fill="#505050" d="M35.289,48.749c-0.084,0-0.17-0.007-0.256-0.022c-0.699-0.119-1.236-0.709-1.307-1.44L31.281,21.97
			l-5.504,15.95c-0.163,0.471-0.526,0.839-0.984,0.996c-0.459,0.159-0.964,0.089-1.364-0.19l-4.314-2.978H2.318v-3.25h17.271
			c0.309,0,0.613,0.096,0.871,0.273l3.037,2.095l7.174-20.79c0.247-0.717,0.95-1.155,1.668-1.067
			c0.729,0.092,1.298,0.695,1.372,1.452l2.561,26.499l5.439-12.385c0.25-0.569,0.794-0.941,1.399-0.952
			c0.611,0.04,1.164,0.34,1.434,0.898l2.345,4.854l3.23-2.229c0.258-0.178,0.562-0.273,0.871-0.273h26.69v3.25H51.466l-4.315,2.978
			c-0.375,0.26-0.836,0.338-1.274,0.219c-0.435-0.12-0.8-0.427-1.001-0.844l-1.668-3.453l-6.489,14.774
			C36.461,48.384,35.897,48.749,35.289,48.749z"/>
	</g>
</g>
</svg>
