<?xml version="1.0" encoding="utf-8"?>
<!-- Generator: Adobe Illustrator 15.0.0, SVG Export Plug-In . SVG Version: 6.00 Build 0)  -->
<!DOCTYPE svg PUBLIC "-//W3C//DTD SVG 1.1//EN" "http://www.w3.org/Graphics/SVG/1.1/DTD/svg11.dtd">
<svg version="1.1" id="Layer_1" xmlns="http://www.w3.org/2000/svg" xmlns:xlink="http://www.w3.org/1999/xlink" x="0px" y="0px"
	 width="80px" height="65px" viewBox="0 0 80 65" enable-background="new 0 0 80 65" xml:space="preserve">
<g>
	<path fill="#505050" d="M30.618,49H27.91c0,4,3.59,8.316,8.59,8.316v-2.708C32.5,54.608,30.618,51,30.618,49z"/>
	<path fill="#505050" d="M71.094,17.604C71.094,7.897,63.077,0,53.369,0c-3.093,0-6.195,0.814-8.861,2.354l1.326,2.345
		c2.253-1.303,4.812-1.991,7.431-1.991c8.213,0,14.889,6.682,14.889,14.896c0,8.214-6.687,14.897-14.899,14.897
		c-8.214,0-14.898-6.683-14.898-14.897c0-3.671,1.345-7.198,3.792-9.931L40.13,5.866c-2.892,3.231-4.484,7.4-4.484,11.738
		c0,8.172,5.604,15.042,13.165,17.017c-0.49,1.236-1.224,2.403-1.865,3.294c-2.28-3.844-6.3-6.535-10.975-6.965
		c-0.413-7.196-6.396-12.931-13.715-12.931C14.67,18.02,8.5,24.173,8.5,31.737c0,6.338,4.339,11.67,10.206,13.237
		C20.41,56.773,30.483,65,43.283,65h5.391c2.354,0,4.226-2.149,4.533-4.211c0.306-0.321,0.899-0.68,1.287-1.073
		c3.652-3.71,10.006-9.917,10.006-16.693V31.499C68.5,28.274,71.094,23.253,71.094,17.604z M61.5,43.022
		c0,5.667-5.94,11.604-9.082,14.793c-0.552,0.561-1.105,1.055-1.49,1.471L50.5,59.675v0.53C50.5,60.99,49.669,62,48.674,62h-5.391
		c-11.29,0-19.889-6.598-21.747-16.727c0.239,0.012,0.476,0.107,0.719,0.107c1.574,0,3.117-0.226,4.589-0.744L25.943,42.1
		c-1.182,0.416-2.422,0.638-3.688,0.638c-6.091,0-11.047-4.936-11.047-11.005c0-6.071,4.956-11.007,11.047-11.007
		c6.091,0,11.047,4.939,11.047,11.011c0,1.72-0.387,3.366-1.149,4.896l2.423,1.209c0.664-1.328,1.084-2.822,1.287-4.274
		C41.687,34.172,46.242,39,46.242,45h2.708c0-2-0.261-2.973-0.726-4.382c0.842-1.025,2.455-3.148,3.291-5.541
		c0.57,0.056,1.242,0.109,1.828,0.109c2.906,0,5.156-0.696,8.156-1.95V43.022z"/>
	<path fill="#505050" d="M43.733,9.987c-1.725,2.152-2.674,4.857-2.674,7.617c0,6.721,5.468,12.189,12.188,12.189
		c6.722,0,12.189-5.468,12.189-12.189S59.97,5.416,53.248,5.416c-2.139,0-4.246,0.563-6.091,1.63l1.354,2.345
		c1.435-0.829,3.072-1.267,4.736-1.267c5.229,0,9.48,4.253,9.48,9.48c0,5.228-4.252,9.481-9.48,9.481
		c-5.227,0-9.48-4.253-9.48-9.481c0-2.178,0.719-4.226,2.079-5.924L43.733,9.987z"/>
	<path fill="#505050" d="M48.145,15.796c-0.205,0.578-0.309,1.187-0.309,1.808c0,2.987,2.43,5.417,5.416,5.417
		s5.417-2.43,5.417-5.417c0-2.986-2.431-5.417-5.417-5.417c-0.617,0-1.225,0.104-1.807,0.308l0.9,2.555
		c0.291-0.103,0.596-0.155,0.906-0.155c1.494,0,2.709,1.214,2.709,2.708s-1.215,2.708-2.709,2.708c-1.493,0-2.708-1.215-2.708-2.708
		c0-0.312,0.052-0.615,0.153-0.902L48.145,15.796z"/>
</g>
</svg>
