<?xml version="1.0" encoding="utf-8"?>
<!-- Generator: Adobe Illustrator 15.0.0, SVG Export Plug-In . SVG Version: 6.00 Build 0)  -->
<!DOCTYPE svg PUBLIC "-//W3C//DTD SVG 1.1//EN" "http://www.w3.org/Graphics/SVG/1.1/DTD/svg11.dtd">
<svg version="1.1" id="Layer_1" xmlns="http://www.w3.org/2000/svg" xmlns:xlink="http://www.w3.org/1999/xlink" x="0px" y="0px"
	 width="80px" height="65px" viewBox="0 0 80 65" enable-background="new 0 0 80 65" xml:space="preserve">
<g>
	<path fill="#505050" d="M52.102,22.938l0.385,2.681c5.295-0.757,9.287-5.367,9.287-10.723c0-5.974-4.86-10.604-10.834-10.604
		C45.426,4.292,40.87,8,40.2,14h-6.304L29.98,9.855L42.814,0H20.091l-5.244,20.976l12.945-9.479L30.066,14H26.5v2.727l0.33,0.372
		c2.987,3.718,3.132,5.631,2.29,8.515c-0.315,1.08-0.87,2.047-1.466,3.07c-1.149,1.973-2.574,4.211-2.574,7.879
		c0,7.756,6.42,14.14,13.42,14.827V62h-5v3h13v-3h-5V51.39c8-0.688,13.522-7.071,13.522-14.827c0-3.668-1.313-5.906-2.462-7.879
		c-0.596-1.023-1.164-1.99-1.479-3.07c-0.843-2.884-0.791-4.797,2.196-8.515l0.222-0.372V14H42.938c0.647-4,3.984-7,8.002-7
		c4.48,0,8.125,3.53,8.125,8.011C59.064,19.027,56.071,22.371,52.102,22.938z M22.206,3H34.69L19.324,14.524L22.206,3z
		 M48.477,26.205C48.549,26.453,48.639,27,48.725,27H33.5v3h16.563c0.049,0,0.097,0.066,0.146,0.15
		c1.071,1.84,2.084,3.526,2.084,6.464c0,6.721-5.468,12.162-12.188,12.162c-6.72,0-12.188-5.48-12.188-12.201
		c0-2.938,1.012-4.682,2.084-6.522c0.651-1.119,1.325-2.405,1.733-3.803C32.857,22.413,32.334,20,29.632,16H50.58
		C47.879,20,47.355,22.369,48.477,26.205z"/>
	<path fill="#505050" d="M43.151,17.219l-2.597,0.772c0.875,2.938,2.97,5.38,5.746,6.697l1.162-2.446
		C45.379,21.253,43.807,19.422,43.151,17.219z"/>
	<rect x="34.5" y="37" fill="#505050" width="3" height="2"/>
	<rect x="41.5" y="34" fill="#505050" width="3" height="3"/>
	<rect x="40.5" y="42" fill="#505050" width="2" height="3"/>
</g>
</svg>
