<?xml version="1.0" encoding="utf-8"?>
<!-- Generator: Adobe Illustrator 15.0.0, SVG Export Plug-In . SVG Version: 6.00 Build 0)  -->
<!DOCTYPE svg PUBLIC "-//W3C//DTD SVG 1.1//EN" "http://www.w3.org/Graphics/SVG/1.1/DTD/svg11.dtd">
<svg version="1.1" id="Layer_1" xmlns="http://www.w3.org/2000/svg" xmlns:xlink="http://www.w3.org/1999/xlink" x="0px" y="0px"
	 width="80px" height="65px" viewBox="0 0 80 65" enable-background="new 0 0 80 65" xml:space="preserve">
<g>
	<path fill="#505050" d="M75.802,0H3.774C1.969,0,0.5,1.468,0.5,3.274v45.835C0.5,50.914,1.969,52,3.774,52H28.5v5h3v-5h15v5h3v-5
		h26.302c1.805,0,3.698-1.086,3.698-2.891V3.274C79.5,1.468,77.606,0,75.802,0z M47.973,49H29.966H3.5V3h72.302l0.003,46H47.973z"/>
	<path fill="#505050" d="M52.884,59H25.055c-0.435,0-0.851,0.139-1.157,0.445l-3.274,3.258l2.315,2.202L25.732,62h26.474L55,64.896
		l2.315-2.263l-3.274-3.214C53.734,59.113,53.318,59,52.884,59z"/>
	<path fill="#505050" d="M36.5,15h-4.103L23.5,27.305V31h10v7h3v-7h2v-3h-2V15z M33.5,28h-6.435l6.435-8.813V28z"/>
	<polygon fill="#505050" points="51.5,15.777 43.932,25 43.5,25 43.5,15 39.5,15 39.5,38 43.5,38 43.5,28 45.466,28 46.1,27.305 
		51.5,36.448 51.5,38 54.5,38 54.5,35.579 48.188,24.536 54.5,16.962 54.5,15 51.5,15 	"/>
</g>
</svg>
