<?xml version="1.0" encoding="utf-8"?>
<!-- Generator: Adobe Illustrator 15.0.0, SVG Export Plug-In . SVG Version: 6.00 Build 0)  -->
<!DOCTYPE svg PUBLIC "-//W3C//DTD SVG 1.1//EN" "http://www.w3.org/Graphics/SVG/1.1/DTD/svg11.dtd">
<svg version="1.1" id="Layer_1" xmlns="http://www.w3.org/2000/svg" xmlns:xlink="http://www.w3.org/1999/xlink" x="0px" y="0px"
	 width="140px" height="35px" viewBox="0 0 140 35" enable-background="new 0 0 140 35" xml:space="preserve">
<path fill="#3578FA" d="M15.104,0c1.905,0,3.724,0.375,5.384,1.053C12.713,2.314,6.775,9.06,6.775,17.19
	c0,4.053,1.476,7.76,3.918,10.619c-1.75-0.568-3.351-1.469-4.73-2.623L-0.5,26.828l2.297-7.464c-0.61-1.587-0.946-3.312-0.946-5.112
	C0.852,6.382,7.234,0,15.104,0z"/>
<path fill="#3578FA" d="M23.215,16.079c0.877,0,1.588,0.711,1.588,1.587s-0.711,1.586-1.588,1.586c-0.876,0-1.587-0.71-1.587-1.586
	S22.339,16.079,23.215,16.079L23.215,16.079z"/>
<path fill="#3578FA" d="M18.901,16.079c0.876,0,1.587,0.711,1.587,1.587s-0.71,1.586-1.587,1.586s-1.587-0.71-1.587-1.586
	S18.025,16.079,18.901,16.079L18.901,16.079z"/>
<path fill="#3578FA" d="M27.529,16.079c0.877,0,1.587,0.711,1.587,1.587s-0.71,1.586-1.587,1.586c-0.876,0-1.587-0.71-1.587-1.586
	S26.653,16.079,27.529,16.079L27.529,16.079z"/>
<path fill="#3578FA" d="M37.468,17.195c0-7.87-6.382-14.252-14.253-14.252c-7.869,0-14.251,6.382-14.251,14.252
	c0,7.872,6.382,14.253,14.251,14.253c1.353,0,2.661-0.189,3.899-0.54L34.562,35l-1.121-7.879
	C35.934,24.555,37.468,21.055,37.468,17.195z M23.215,25.984c-4.853,0-8.788-3.938-8.788-8.792c0-4.852,3.935-8.788,8.788-8.788
	s8.789,3.936,8.789,8.788C32.003,22.048,28.068,25.984,23.215,25.984z"/>
<g>
	<path fill="#444444" d="M42.854,8.435h2.534l5.814,15.523h0.054l6-15.523h2.375l-7.389,18.884h-2.16L42.854,8.435z"/>
	<path fill="#444444" d="M66.646,8.435h2.107l8.028,18.884h-2.614l-1.921-4.642h-9.44l-1.948,4.642h-2.534L66.646,8.435z
		 M67.659,11.315h-0.053l-3.921,9.282h7.708L67.659,11.315z"/>
	<path fill="#444444" d="M79.288,8.435h2.827l10.936,15.683h0.054V8.435h2.24v18.884h-2.828L81.582,11.636h-0.054v15.684h-2.24
		V8.435z"/>
	<path fill="#444444" d="M100.038,8.435h2.827l10.937,15.683h0.053V8.435h2.241v18.884h-2.828l-10.935-15.684h-0.055v15.684h-2.24
		V8.435z"/>
	<path fill="#444444" d="M129.564,27.799c-1.439,0-2.76-0.248-3.96-0.746c-1.201-0.498-2.241-1.188-3.12-2.067
		c-0.881-0.88-1.566-1.929-2.055-3.147c-0.489-1.218-0.733-2.538-0.733-3.961c0-1.422,0.244-2.742,0.733-3.961
		c0.488-1.217,1.174-2.267,2.055-3.147c0.879-0.88,1.919-1.569,3.12-2.067c1.2-0.498,2.521-0.747,3.96-0.747
		c1.44,0,2.762,0.249,3.961,0.747c1.2,0.498,2.24,1.187,3.121,2.067c0.88,0.88,1.564,1.93,2.054,3.147
		c0.489,1.219,0.733,2.539,0.733,3.961c0,1.423-0.244,2.743-0.733,3.961c-0.489,1.219-1.174,2.268-2.054,3.147
		c-0.881,0.88-1.921,1.569-3.121,2.067C132.326,27.551,131.005,27.799,129.564,27.799z M129.564,25.719
		c1.104,0,2.112-0.204,3.027-0.613c0.916-0.409,1.702-0.969,2.36-1.681c0.658-0.711,1.169-1.543,1.534-2.494
		c0.364-0.951,0.547-1.969,0.547-3.054c0-1.084-0.183-2.103-0.547-3.054c-0.365-0.951-0.876-1.782-1.534-2.493
		s-1.444-1.271-2.36-1.681c-0.915-0.409-1.924-0.614-3.027-0.614c-1.103,0-2.111,0.205-3.027,0.614
		c-0.915,0.409-1.702,0.969-2.36,1.681s-1.169,1.542-1.533,2.493c-0.365,0.952-0.547,1.97-0.547,3.054
		c0,1.085,0.182,2.103,0.547,3.054c0.364,0.951,0.875,1.783,1.533,2.494c0.658,0.712,1.445,1.271,2.36,1.681
		C127.453,25.515,128.462,25.719,129.564,25.719z"/>
</g>
</svg>
